<?xml version="1.0" encoding="utf-8"?>
<!-- Generator: Adobe Illustrator 22.1.0, SVG Export Plug-In . SVG Version: 6.00 Build 0)  -->
<svg version="1.1" id="Layer_1" xmlns="http://www.w3.org/2000/svg" xmlns:xlink="http://www.w3.org/1999/xlink" x="0px" y="0px"
	 viewBox="0 0 1500 1500" style="enable-background:new 0 0 1500 1500;" xml:space="preserve">
<g>
	<g>
		<path d="M492.7,552.4c3.2,8.1,5.5,16.1,8.4,26.1c-14.7-8.3-20.2-20.1-24.3-33.8c-4.1-13.4-2.3-27-3.5-40.5
			c-7.2-3.6-8.2,4.8-14.1,6.3c-1.5-1.1-3.6-2.8-6.9-5.3c0-8.3,0-17.4,0-29.8c-2.6,5.6-3.7,7.9-4.8,10.2c-2.5,0-4.8,0-8.3,0
			c-1.6-11.2,0.1-22.7-0.9-33c-4-2.5-7.2-4.6-10.8-6.8c0-6.6,0-12.8,0-20.3c-4.8,1.2-8.7,2.1-13.4,3.2c-0.9-8.4,3.1-14.6,8.8-20.3
			c6.3-6.4,13.6-12,15.6-21.7c-2.6-2-5.2-4-9.2-7.1c11.4-5.3,21.1-9.7,30.6-14c-1.8-5.4-3.2-9.5-4.5-13.1c5.2-7,17-5,18.4-16.3
			c-3.9-0.8-7.5-1.5-12.9-2.6c2.4-2.7,3.4-4.9,5-5.4c7.8-2.3,10-9.2,10.6-15.3c1-10.4,4.4-17.4,14.4-22.1c5.5-2.6,9.2-8.7,14-13.5
			c-2.4-1.1-4.7-2.2-8-3.8c1.7-2.5,2.8-5.3,4.8-6.8c14.9-11.7,29.1-24.9,45.4-34.3c15.4-8.8,31.9-17.4,50.9-16.4
			c6.8,0.4,13.1-1.7,19.7-3c12.1-2.5,24.3,0.7,35.7,6c1.9,0.9,4.5,0.5,7.3,0.7c8.3,6.4,14.1,16,22.8,22.9c4,3.1,5.7,9.1,8.9,14.6
			c7.2,2.6,13.1,7.9,12.6,17.4c7.9,3.4,14.2-0.4,19.5-3.7c10.4-6.3,21.9-9.2,31.4-13.5c10,3.4,7.8,10.6,8.2,16.5
			c3.8,3.8,7.5,7.5,10.6,10.6c5.3,2,9.8,3.8,13,5c-1.9,3-3.4,5.4-5.3,8.3c-2.6-1.8-4.4-3.1-6.4-4.6c-0.5,1.2-1.1,2.7-2,4.8
			c12.4,5.8,24.5,11.8,31.2,24.6c2.5,5.3-1.7,12.3,4,17.6c-2.3,2.7-4.7,5.5-8.4,9.8c3.4,1.4,5.6,2.3,9.1,3.8
			c-0.5,7.1-1.1,14.6-1.7,23.6c0.4,0.4,2.5,2.5,5.2,5.2c-3.7,2.4-7.3,4.6-10.8,6.9c0,0.5-0.2,1.3,0,1.6c4.4,5.3,8.8,10.5,13.8,16.4
			c0,1.3,0,3.6,0,6.7c-1.5,0.5-3.5,1.2-6.1,2.1c2.3,3.7,4.6,7.4,7.8,12.5c-5.7,0-9.6,0-13.3,0c-3.1,3.5-5.9,6.5-9.6,10.7
			c1.8,1.3,3.9,3.3,6.3,4.6c8.6,4.6,16.9,9.9,26,13.2c8,2.8,15.3,4.5,18.8,13.8c1.7,4.5,7.1,7.6,11,11.5c1.8,6,3.6,12.2,5.8,19.8
			c10,10,20.8,21.1,24,37.6c1,5.3,8.8,6.5,12.5,11.7c2.5,3.6,11.2,3.6,17.2,3.8c15.7,0.5,31.5-0.2,47.3,0.3
			c9.5,0.3,18.7,2.4,25.9,10.4c6.1,0,12.6-0.8,18.8,0.2c5.2,0.8,10.1,3.7,15.1,5.6c1,0.4,2.1,1.2,3,1.1c14.4-1.8,27.4,4.3,40.7,7.6
			c8.3,2,16.4,2.6,24.2,3c5.5,8.3,5.5,8.3,1.1,29.1c-9.4,8.2-17.9,15.7-27.4,24c-4.2-1-9.6-2.2-16.2-3.8c-6.3,9.6-19,9.5-31.4,16.2
			c10.8,1.7,19.6,0.5,28.1,1.2c7.6,7.5,21.1,5.2,26.6,17.1c-0.7,2.5-1.6,5.6-2.4,8.3c0.9,4.7,1.8,9.4,2.6,14
			c-6.5,6.1-10.7,14.6-20.6,13.6c-5.6,5.4-6,15.5-17.3,14.4c-2.9-0.3-6.5,6.1-8.7,8.2c-10.7,1.8-20.2,4.9-29.4,4.4
			c-9.9-0.6-18.5,5.7-28.2,3.7c-2.1-2.1-4.1-4.1-6.4-6.4c-13.1-1.6-26.3-3.1-40.9-4.9c1.8,7.7,3.2,13.4,4.6,19.4
			c-4.4,3.7-8.4,7-11.3,9.5c0,4.2,0,6.5,0,8.9c-3.3,3.3-6.6,6.6-10.2,10.1c0,3.2,0,6.6,0,10c-3.9,4.2-6.7,9.4-13.1,10.1
			c-2.1,4.4-3,10.1-6.4,13c-11.6,9.7-17.5,23.4-26.7,34.8c-7.4,9.1-12.1,20.5-16.9,31.4c-1.8,4-3.2,6.8-7.5,8
			c-7.9,2.3-13.1,8.3-18.9,13.7c-5.8,5.3-9.7,13-18.3,15c-2.1,8.4-9.6,12.5-14.9,18.3c-5.5,6-11.5,11.6-17.3,17.4
			c-2,5.7,0.4,11.7-3,18.1c-2.5,4.6,0,13.4,2.9,18.9c4.2,7.7,2.4,15.5,2.9,19.6c4.7,9.4,7.8,15.7,11,22.2c-4.3,7.1-6.2,14.3-1.2,20
			c-3.2,20.3-6.3,39.4-9.4,59.4c-14.4,13.1-26.1,30.1-46.4,37.4c0.6,1,1.3,2,1.9,3c3.2-1.2,6.4-3,9.7-3.6c4-0.6,8.1-0.1,12-0.1
			c2.6,2.6,5.1,5.1,8.7,8.7c-1,6.4,2.7,14.3-3.2,21.3c2.1,2.1,4.1,4.1,6.2,6.2c3.8,10.6-5.6,11.7-11.8,15.5
			c-1.2-0.7-2.9-1.7-5.8-3.5c-2.6,2.9-5.3,6-9.9,11.2c1.9-0.8,0.9,0.1-0.1,0c-5.5-0.6-10.6-0.6-16.3-2.7c-7.2-2.7-15.9,2.7-24.3,3.6
			c-11.6,1.3-11.4,2.5-21-1.2c-12.8,5.9-26,13.8-41.2,10.5c-2.3,2.3-4,4-5.7,5.7c4.2,4,8.3,8.1,12.5,12.1
			c12.7-1.2,16.1,15.8,28.3,14.3c1.4,3.3,2.4,5.8,3.7,8.8c-2.1,4.1-4.8,8.3,0.6,13.8c4,4.1,6,10.1,9.1,15.6
			c-9.4,10.5-21.9,16-26.8,28.8c-8-2.3-16,2.9-22.2-4.1c-4.9,6.3-11.8,2.2-17.4,3.5c-2.3-2.3-4.4-4.4-6.8-6.8c-3.1,0-6.5,0-8,0
			c-10-5.8-18.5-10.7-27.6-16c-5.5-7.6-11.6-16.1-17.8-24.7c-3.3-16.2-6.7-32.8-10.2-50.5c-0.6,0.6,0.8-0.1,0.9-1.1
			c0.6-3.9,0.9-7.8,1.2-11.2c-2.6-2.6-4.7-4.7-7-7c0-5.5,0-11.3,0-18.1c-3.6-2.9-7.6-6.1-10.7-8.6c0-7.6,0-13.4,0-19.5
			c3.7-4.7,7.1-9.8,11.3-14.2c4.3-4.7,9.3-8.7,14.3-13.3c-4.4-8.9-12.4-13.2-17.8-20.9c-2.5-11.7-4.3-24.3-4.8-37.4
			c-0.5-11.7-4.9-23.2-8-36.1c-14.5,8.1-27.8,15.5-40.8,22.8c-6-2.3-7.8-6.6-6.6-13.2c-7.5,0-14.8,0-22.6,0
			c-2.2-2.3-4.1-4.3-5.6-5.8c0-5.3,0.4-5.7,11.4-11.1c-1.5-6-3.1-12.3-4.8-18.9c-11.6,0-22.6,0-33.5,0c-0.1-0.7-0.3-1.4-0.4-2.1
			c2.9-0.7,6-1.1,8.7-2.3c3.4-1.6,6.3-4.4,9.8-6c2.9-1.4,6.3-1.5,9.4-2.6c3.5-1.3,7.2-2.6,10.3-4.6c2.9-2,5.1-5,6-10.2
			c-3.8,1.1-7.6,2.2-11.9,3.5c-1.3-1.6-2.8-3.4-4.3-5.3c1.8-3.5,3.8-7.4,5.9-11.3c-0.5-0.5-1-1.1-1.6-1.6c-3.9,2.5-7.9,5.1-11.9,7.7
			c-6.2-1.5-8-5.7-7.1-11c6-6,11.7-11.7,18-17.9c0-9.2,0-18.2,0-27.8c11,2.1,10.7,11.5,14.8,17.8c2.6,0,5.3,0,8.6,0
			c0-6.5,0-12.8,0-19.5c-2.9-2.9-6.2-6.2-10.3-10.3c2.7-1.9,5.5-3.8,7.3-5.1c0-14.4,0-27.2,0-40.1c5-7.8,10-15.7,14.6-22.9
			c4.3,0.2,7,0.4,11,0.6c-5.4,14-15.9,25.2-10.7,40.3c3.6-0.5,5.5-2.3,6.4-6.8c0.6-2.9,4.3-5.2,6.7-7.9c0-4.4,0-9.1,0-10.3
			c3.7-9.6,6.2-16.1,9-23.4c2.9,1.4,5.8,2.8,9.6,4.7c7.4-6.7,10-18.9,22.1-22.3c0.7,3.8,1.3,6.9,2,10.7
			c12.5-6.1,25.9-10.7,36.9-18.6c11.7-8.3,21.1-19.7,28.8-33c0,6.7,0,13.4,0,19.8c2.3,0.4,4.1,1.1,4.4,0.7c3.4-4.2,6.4-8.5,6.3-14.4
			c-0.2-11.7-0.1-23.3-0.1-35c0-4.7,1.1-9.7-0.3-13.9c-1.4-4.3,5.3-6.6,1.2-11.7c-2.3-2.9-1.1-8.9-0.8-13.5
			c0.3-4.2,1.6-8.4,2.9-14.8c-1.3-1.4-3.9-4.2-6-6.5c1.3-7.4,2.6-14.5,3.5-19.3c-3.3-6.1-5.4-9.9-8.2-14.9c2.3-2.5,4.9-5.4,7.7-8.4
			c0-5.6,0-11.4,0-17.3c-3.3-3.2-6.6-6.5-10.6-10.4c15.3-11.4,1.2-25.6,3.6-38.6c-6.6-5.1-13.2-10.1-19.7-15.2
			c-4.4,9-8.9,18.2-13.4,27.4c-1.3,0-2.4,0-4.8,0c-0.4-5.8-0.9-11.7-1.4-18.6c-13.3,4.8-15,16.4-19.2,27.9c-4-5.4-6.8-9.2-9.5-12.8
			c-2.5,3.7-4.7,7.1-9.1,13.7c0-9.3,0-14.8,0-21.3c-5.8,4.7-10.3,8.4-16.2,13.2c-0.9-5.4-1.4-8.7-2.4-14.7c-1.8,4.3-2.6,6.2-3.9,9.4
			c-4-5.4-7.6-10.4-11.3-15.3C495,551.7,494.3,552.1,492.7,552.4c0.1-0.1,1.1-0.2,2.2-0.2c-0.4-2.3-0.9-4.6-1.3-6.8
			c-0.8,0.1-1.5,0.2-2.3,0.3C491.5,547.8,491.6,550.1,492.7,552.4z"/>
	</g>
</g>
</svg>
