<?xml version="1.0" encoding="utf-8"?>
<!-- Generator: Adobe Illustrator 22.1.0, SVG Export Plug-In . SVG Version: 6.00 Build 0)  -->
<svg version="1.1" xmlns="http://www.w3.org/2000/svg" xmlns:xlink="http://www.w3.org/1999/xlink" x="0px" y="0px"
	 viewBox="0 0 1500 1500" style="enable-background:new 0 0 1500 1500;" xml:space="preserve">
<style type="text/css">
	.st0{fill:#C7C8CA;}
	.st1{fill:none;}
	.st2{fill:#FFFFFF;}
</style>
<g id="Layer_2">
</g>
<g id="Layer_1">
	<g>
		<g>
			<path class="st0" d="M346.7,209.9c1,2.6,1.7,5.1,2.6,8.2c-4.6-2.6-6.4-6.3-7.7-10.7c-1.3-4.2-0.7-8.5-1.1-12.8
				c-2.3-1.1-2.6,1.5-4.4,2c-0.5-0.4-1.2-0.9-2.2-1.7c0-2.6,0-5.5,0-9.4c-0.8,1.8-1.2,2.5-1.5,3.2c-0.8,0-1.5,0-2.6,0
				c-0.5-3.5,0-7.1-0.3-10.4c-1.3-0.8-2.3-1.4-3.4-2.2c0-2.1,0-4.1,0-6.4c-1.5,0.4-2.8,0.7-4.2,1c-0.3-2.7,1-4.6,2.8-6.4
				c2-2,4.3-3.8,4.9-6.8c-0.8-0.6-1.7-1.3-2.9-2.2c3.6-1.7,6.7-3.1,9.7-4.4c-0.6-1.7-1-3-1.4-4.1c1.6-2.2,5.4-1.6,5.8-5.2
				c-1.2-0.2-2.4-0.5-4.1-0.8c0.8-0.8,1.1-1.6,1.6-1.7c2.5-0.7,3.2-2.9,3.4-4.8c0.3-3.3,1.4-5.5,4.5-7c1.7-0.8,2.9-2.8,4.4-4.3
				c-0.8-0.4-1.5-0.7-2.5-1.2c0.5-0.8,0.9-1.7,1.5-2.2c4.7-3.7,9.2-7.9,14.3-10.8c4.9-2.8,10.1-5.5,16.1-5.2
				c2.1,0.1,4.1-0.5,6.2-0.9c3.8-0.8,7.7,0.2,11.3,1.9c0.6,0.3,1.4,0.2,2.3,0.2c2.6,2,4.4,5.1,7.2,7.2c1.2,1,1.8,2.9,2.8,4.6
				c2.3,0.8,4.1,2.5,4,5.5c2.5,1.1,4.5-0.1,6.2-1.2c3.3-2,6.9-2.9,9.9-4.3c3.2,1.1,2.4,3.3,2.6,5.2c1.2,1.2,2.4,2.4,3.3,3.3
				c1.7,0.6,3.1,1.2,4.1,1.6c-0.6,1-1.1,1.7-1.7,2.6c-0.8-0.6-1.4-1-2-1.4c-0.2,0.4-0.4,0.8-0.6,1.5c3.9,1.8,7.7,3.7,9.8,7.8
				c0.8,1.7-0.5,3.9,1.3,5.6c-0.7,0.8-1.5,1.7-2.7,3.1c1.1,0.4,1.8,0.7,2.9,1.2c-0.2,2.2-0.3,4.6-0.5,7.4c0.1,0.1,0.8,0.8,1.6,1.6
				c-1.2,0.7-2.3,1.5-3.4,2.2c0,0.2-0.1,0.4,0,0.5c1.4,1.7,2.8,3.3,4.4,5.2c0,0.4,0,1.1,0,2.1c-0.5,0.2-1.1,0.4-1.9,0.7
				c0.7,1.2,1.5,2.3,2.5,3.9c-1.8,0-3,0-4.2,0c-1,1.1-1.8,2.1-3,3.4c0.6,0.4,1.2,1,2,1.5c2.7,1.5,5.3,3.1,8.2,4.2
				c2.5,0.9,4.8,1.4,5.9,4.4c0.5,1.4,2.2,2.4,3.5,3.6c0.6,1.9,1.1,3.9,1.8,6.3c3.2,3.2,6.5,6.7,7.6,11.9c0.3,1.7,2.8,2,3.9,3.7
				c0.8,1.1,3.5,1.1,5.4,1.2c5,0.1,9.9,0,14.9,0.1c3,0.1,5.9,0.8,8.2,3.3c1.9,0,4-0.2,5.9,0.1c1.6,0.3,3.2,1.2,4.8,1.8
				c0.3,0.1,0.7,0.4,1,0.3c4.5-0.6,8.7,1.4,12.9,2.4c2.6,0.6,5.2,0.8,7.6,0.9c1.7,2.6,1.7,2.6,0.3,9.2c-3,2.6-5.6,4.9-8.7,7.6
				c-1.3-0.3-3-0.7-5.1-1.2c-2,3-6,3-9.9,5.1c3.4,0.5,6.2,0.2,8.9,0.4c2.4,2.4,6.7,1.6,8.4,5.4c-0.2,0.8-0.5,1.8-0.8,2.6
				c0.3,1.5,0.6,3,0.8,4.4c-2.1,1.9-3.4,4.6-6.5,4.3c-1.8,1.7-1.9,4.9-5.5,4.5c-0.9-0.1-2.1,1.9-2.7,2.6c-3.4,0.6-6.4,1.6-9.3,1.4
				c-3.1-0.2-5.8,1.8-8.9,1.2c-0.7-0.7-1.3-1.3-2-2c-4.1-0.5-8.3-1-12.9-1.5c0.6,2.4,1,4.2,1.5,6.1c-1.4,1.2-2.6,2.2-3.6,3
				c0,1.3,0,2,0,2.8c-1,1-2.1,2.1-3.2,3.2c0,1,0,2.1,0,3.2c-1.2,1.3-2.1,3-4.1,3.2c-0.7,1.4-1,3.2-2,4.1c-3.6,3-5.5,7.4-8.4,11
				c-2.3,2.9-3.8,6.5-5.3,9.9c-0.6,1.3-1,2.1-2.4,2.5c-2.5,0.7-4.1,2.6-6,4.3c-1.8,1.7-3.1,4.1-5.8,4.7c-0.7,2.7-3,4-4.7,5.8
				c-1.7,1.9-3.6,3.7-5.5,5.5c-0.6,1.8,0.1,3.7-1,5.7c-0.8,1.4,0,4.2,0.9,6c1.3,2.4,0.8,4.9,0.9,6.2c1.5,3,2.4,5,3.5,7
				c-1.4,2.2-2,4.5-0.4,6.3c-1,6.4-2,12.4-3,18.7c-4.5,4.1-8.2,9.5-14.7,11.8c0.2,0.3,0.4,0.6,0.6,0.9c1-0.4,2-1,3.1-1.1
				c1.3-0.2,2.6,0,3.8,0c0.8,0.8,1.6,1.6,2.8,2.8c-0.3,2,0.8,4.5-1,6.7c0.6,0.7,1.3,1.3,2,2c1.2,3.3-1.8,3.7-3.7,4.9
				c-0.4-0.2-0.9-0.5-1.8-1.1c-0.8,0.9-1.7,1.9-3.1,3.5c0.6-0.2,0.3,0,0,0c-1.7-0.2-3.4-0.2-5.2-0.8c-2.3-0.8-5,0.8-7.7,1.1
				c-3.7,0.4-3.6,0.8-6.6-0.4c-4,1.9-8.2,4.3-13,3.3c-0.7,0.7-1.2,1.2-1.8,1.8c1.3,1.3,2.6,2.5,4,3.8c4-0.4,5.1,5,8.9,4.5
				c0.4,1,0.8,1.8,1.2,2.8c-0.7,1.3-1.5,2.6,0.2,4.4c1.3,1.3,1.9,3.2,2.9,4.9c-3,3.3-6.9,5-8.4,9.1c-2.5-0.7-5,0.9-7-1.3
				c-1.6,2-3.7,0.7-5.5,1.1c-0.7-0.7-1.4-1.4-2.1-2.1c-1,0-2,0-2.5,0c-3.2-1.8-5.8-3.4-8.7-5c-1.7-2.4-3.7-5.1-5.6-7.8
				c-1-5.1-2.1-10.4-3.2-15.9c-0.2,0.2,0.2,0,0.3-0.3c0.2-1.2,0.3-2.5,0.4-3.5c-0.8-0.8-1.5-1.5-2.2-2.2c0-1.7,0-3.6,0-5.7
				c-1.1-0.9-2.4-1.9-3.4-2.7c0-2.4,0-4.2,0-6.2c1.2-1.5,2.3-3.1,3.6-4.5c1.4-1.5,2.9-2.7,4.5-4.2c-1.4-2.8-3.9-4.2-5.6-6.6
				c-0.8-3.7-1.3-7.7-1.5-11.8c-0.2-3.7-1.6-7.3-2.5-11.4c-4.6,2.6-8.8,4.9-12.9,7.2c-1.9-0.7-2.5-2.1-2.1-4.2c-2.4,0-4.7,0-7.1,0
				c-0.7-0.7-1.3-1.3-1.8-1.8c0-1.7,0.1-1.8,3.6-3.5c-0.5-1.9-1-3.9-1.5-6c-3.7,0-7.1,0-10.6,0c0-0.2-0.1-0.4-0.1-0.7
				c0.9-0.2,1.9-0.3,2.7-0.7c1.1-0.5,2-1.4,3.1-1.9c0.9-0.4,2-0.5,3-0.8c1.1-0.4,2.3-0.8,3.2-1.5c0.9-0.6,1.6-1.6,1.9-3.2
				c-1.2,0.4-2.4,0.7-3.8,1.1c-0.4-0.5-0.9-1.1-1.4-1.7c0.6-1.1,1.2-2.3,1.9-3.6c-0.2-0.2-0.3-0.3-0.5-0.5c-1.2,0.8-2.5,1.6-3.7,2.4
				c-2-0.5-2.5-1.8-2.2-3.5c1.9-1.9,3.7-3.7,5.7-5.7c0-2.9,0-5.7,0-8.8c3.5,0.7,3.4,3.6,4.7,5.6c0.8,0,1.7,0,2.7,0c0-2.1,0-4,0-6.1
				c-0.9-0.9-2-2-3.3-3.3c0.9-0.6,1.7-1.2,2.3-1.6c0-4.5,0-8.6,0-12.7c1.6-2.5,3.2-4.9,4.6-7.2c1.4,0.1,2.2,0.1,3.5,0.2
				c-1.7,4.4-5,8-3.4,12.7c1.1-0.1,1.7-0.7,2-2.1c0.2-0.9,1.3-1.6,2.1-2.5c0-1.4,0-2.9,0-3.2c1.2-3,2-5.1,2.9-7.4
				c0.9,0.4,1.8,0.9,3,1.5c2.3-2.1,3.2-6,7-7c0.2,1.2,0.4,2.2,0.6,3.4c3.9-1.9,8.2-3.4,11.7-5.9c3.7-2.6,6.7-6.2,9.1-10.4
				c0,2.1,0,4.2,0,6.3c0.7,0.1,1.3,0.4,1.4,0.2c1.1-1.3,2-2.7,2-4.5c-0.1-3.7,0-7.4,0-11.1c0-1.5,0.3-3.1-0.1-4.4
				c-0.4-1.4,1.7-2.1,0.4-3.7c-0.7-0.9-0.3-2.8-0.2-4.3c0.1-1.3,0.5-2.7,0.9-4.7c-0.4-0.4-1.2-1.3-1.9-2.1c0.4-2.3,0.8-4.6,1.1-6.1
				c-1-1.9-1.7-3.1-2.6-4.7c0.7-0.8,1.5-1.7,2.4-2.7c0-1.8,0-3.6,0-5.5c-1-1-2.1-2-3.4-3.3c4.8-3.6,0.4-8.1,1.1-12.2
				c-2.1-1.6-4.2-3.2-6.2-4.8c-1.4,2.8-2.8,5.7-4.2,8.6c-0.4,0-0.8,0-1.5,0c-0.1-1.8-0.3-3.7-0.5-5.9c-4.2,1.5-4.7,5.2-6.1,8.8
				c-1.3-1.7-2.1-2.9-3-4c-0.8,1.2-1.5,2.3-2.9,4.3c0-2.9,0-4.7,0-6.7c-1.8,1.5-3.3,2.7-5.1,4.2c-0.3-1.7-0.4-2.7-0.8-4.6
				c-0.6,1.3-0.8,2-1.2,3c-1.3-1.7-2.4-3.3-3.6-4.8C347.4,209.7,347.2,209.8,346.7,209.9c0,0,0.4-0.1,0.7-0.1
				c-0.1-0.7-0.3-1.4-0.4-2.2c-0.2,0-0.5,0.1-0.7,0.1C346.3,208.5,346.4,209.2,346.7,209.9z"/>
		</g>
		<path d="M971.9,300.6c-0.5,10.3-7,17-14.9,22.5c-9.1,6.3-19.3,9.3-30.6,8.6c-11.3-0.7-20.1-5.8-27.6-14.3
			c-3.3,17.5,4.9,42.3,32,40.9c17.4-0.9,30.6-8.9,41.9-21.1c1-1.1,1.9-2.3,3-3.3c0.2-0.2,0.6-0.2,2.6-0.7c-2.3,3.8-3.5,7-5.7,9.3
			c-15.6,16.5-33.8,26.7-57.5,22.5c-15.1-2.6-26.4-15.5-27.8-31c-1-10.7,0-21.1,2.2-31.6c0.9-4.3-1-9.1-1.2-13.7
			c-1.5-28.2,11.3-48.4,35.3-62c17-9.6,35.5-14.1,54.2-7.3c11.8,4.3,23.5,4.6,35.4,6.2c13.1,1.7,24.6,6.7,33.7,16.4
			c2.1,2.2,3.7,2.7,6.4,1.1c2-1.2,4.5-1.5,6.8-2.2c0.3,0.6,0.6,1.3,0.8,1.9c-2,1.2-3.9,2.6-6,3.5c-2.7,1.1-3.1,2.4-1.6,4.9
			c8.6,14.4,10.5,30.4,10,46.7c-0.6,22.6-5.9,44.4-13.3,65.7c-0.3,0.8-0.5,1.6-0.6,2.4c-0.1,0.6,0.1,1.3,0.2,2.1
			c1.5,0.4,3.1,0.5,4.4,1.1c4.3,1.9,6.3,0,8.6-3.7c19.7-32.4,38.7-65.4,63.4-94.5c10.4-12.3,21.6-23.8,35.4-32.5
			c7.3-4.6,15-8.3,23.9-9.1c12.6-1.1,21,6.2,21.5,19c0.1,1.9,0,3.9,0,5.8c-0.5,0.1-1,0.2-1.5,0.4c-0.5-1.2-1.2-2.3-1.5-3.5
			c-2.4-10.8-9.8-15.3-20.6-12.6c-9.8,2.4-18.4,7.4-26.2,13.7c-22.4,18.2-39.4,41.2-55.7,64.6c-11.6,16.6-22.4,33.6-33.6,50.5
			c-1,1.5-1.8,3.1-3,5.2c4.2,2.4,8.3,4.6,12.2,6.9c14.7,9,20,23.7,14.3,39.9c-0.1,0.4-0.6,0.7-2,2.3c0-2.4-0.3-3.7,0-4.8
			c5.9-21.1-7.2-33.7-23.5-40.8c-4-1.7-4.8,1.9-6.3,3.9c-7.2,9.5-14.2,19.2-21.7,28.5c-2.5,3.2-6.2,5.4-9.4,8.1
			c-0.6-0.4-1.2-0.9-1.9-1.3c0.8-2.9,1.5-5.9,2.4-8.7c3.6-11.2,7.3-22.3,10.7-33.6c0.3-1.1-1-3.8-1.4-3.7c-2.8,0.1-6.5-2.8-8.3,1.5
			c-1.8,4.1-3.2,8.3-4.8,12.5c-9,22.9-23.8,41.4-44.3,54.8c-14.1,9.2-30,14.5-47.4,11c-7.7-1.6-14.4-4.7-18.5-12.1
			c-0.7-1.4-3.5-2.1-5.4-2.2c-8.9-0.7-18-0.6-25.9-5.9c-4.6-3.1-7-7.7-5.5-12.2c0.7-1.9,2.7-3.3,4.8-5.7c0.2,4.6-0.6,8.3,0.8,10.3
			c1.9,2.8,5.4,5.4,8.6,6.2c6.1,1.6,12.6,2,18.7,2.9c3.5-29.7,22.1-44.6,46.3-54.6c5.4-2.2,10.8-4.4,16.5-5.6
			c4.3-0.9,6.6-3.3,8.2-6.9c4.9-11.1,9.3-22.3,14.6-33.2c8.6-17.9,17.6-35.5,26.5-53.2c1.6-3.2,2.1-6,0.8-9.4
			c-5.7-14.7-14.2-27.2-27.4-36.2c-1.5-1-3.7-1.3-5.6-1.4c-17.3-1.1-32.3,5.2-46.2,14.6c-18,12.3-32.5,27.8-40.9,48.3
			c-1.6,3.8-2.6,7.9-4.2,11.7c-2.3,5.3,0.9,9,3.7,12.5c11.3,14.1,27,15.4,42.3,9.3c9.2-3.6,17.3-9.2,21.6-18.7
			c1.1-2.4,1.8-5.1,2.7-7.6C970.7,300,971.3,300.3,971.9,300.6z M1025.7,368.4c-10.3-1.3-20-0.3-29.6,1.4c-1.3,0.2-2.4,2.1-3.3,3.4
			c-5.8,8.5-11,17.4-17.2,25.5c-11.4,14.7-25.8,25.7-43.7,31.4c-4,1.3-8.1,2.1-12.4,3.3c3.4,7.7,9.1,11.8,16.5,13.1
			c11.8,1.9,23.1-0.2,33.9-5.5c16.7-8.2,29.7-20.4,39.6-36C1016.6,393.8,1022.3,382,1025.7,368.4z M894.4,288.7
			c20.6-34.4,50-55.7,88.9-63.6c-11.8-11.2-45.4-6.5-66.5,8.7C898.1,247.2,890.5,277.6,894.4,288.7z M1029.7,287.3
			c-0.7-0.1-1.4-0.2-2.1-0.3c-10,26-20,52-30,77.9c10,0,19.7,0,29.4,0C1033.7,338.7,1032.8,313,1029.7,287.3z M916.6,428.5
			c26.1-3.9,50-33.3,58.7-54c-0.5-0.1-1-0.4-1.4-0.3c-23,5.5-42.3,16.3-53.1,38.5C918.6,417.2,918.1,422.6,916.6,428.5z M1041.5,366
			c7.6-35,13.5-69.4-0.4-103.9c-3.1,4.3-5.6,8.7-7.9,13.3c-0.4,0.7-0.1,1.9,0.1,2.8c1.3,5.8,3.1,11.5,3.8,17.4
			c2.2,20.3,0.9,40.4-4.1,60.3c-0.8,3-1,6.1-1.5,9.6C1034.9,365.6,1037.9,365.8,1041.5,366z M1029.3,266c2.7-3.5,4.9-5.9,6.5-8.7
			c0.7-1.3,0.9-3.8,0.1-4.8c-3.9-4.6-7.8-9.5-12.6-13.2c-5.4-4.2-11.6-7.2-20.1-7.6C1015.5,240.9,1023.5,252,1029.3,266z
			 M1058,373.3c-1.6-0.5-2.6-0.7-3.5-1.1c-4.7-2.1-7.2-0.4-8.8,4.4c-2.2,6.7-4.8,13.4-7.5,20c-1.7,4.3-3.8,8.4-5.7,12.5
			c0.5,0.2,0.9,0.5,1.4,0.7C1043.7,399.1,1050.5,386.3,1058,373.3z"/>
		<path d="M159.4,266.7c-1.3-1.9-2.6-3.6-3.7-5.6c-7-12-18.3-17.8-31.3-21c-1.1-0.3-2.8,0.7-3.7,1.5c-11.3,10.2-10.2,25-1.9,35.9
			c4.8,6.2,11,11.3,16.9,16.6c0.9,0.8,3.2,0.4,4.7-0.1c7.6-2.2,14.9-5.8,22.7-6.8c11.5-1.5,19.8,6.2,21.9,17.7
			c1.6,8.6,0.4,16.6-3.2,24.3c-1.4,3-0.8,5.1,0.4,7.9c3.1,7.3,6.8,14.6,8.2,22.2c2.6,15.1-5,27-15,37.3
			c-15.5,15.8-35,24.2-56.2,29.2c-15.4,3.6-30.9,6.7-46.8,5.5c-1.4,13.2,7.4,29.9,24.3,34.7c9.9,2.8,19.3,0.1,28-5.3
			c8.6-5.3,14.9-12.3,17.5-22.5c0.5,0.1,1,0.2,1.5,0.2c0,1.2,0.3,2.6,0,3.7c-3.9,12.8-13.3,20.3-25.1,25c-4.7,1.9-9.9,2.7-15,3.3
			c-19.5,2.3-30.8-7.6-36.4-25c-1-3.1-1.7-6.5-1.8-9.8c-0.1-4.6-2.5-6.2-6.6-6.9c-8.6-1.5-16-5.3-22.3-11.3
			c-9.3-9-10.4-19.8-7.5-31.7c1.8-7.4,5-14.1,10.4-19.5c2.3-2.4,1-3.4-0.7-5.2c-14.2-14.9-20.3-32.8-17.3-53
			c3.3-21.9,14.1-39.9,31.6-53.6c16-12.5,34.3-18.7,54.5-18.8c5.2,0,9.1-1.8,13.3-4.4c19.9-12,41.1-15.2,63.2-7.8
			c6.5,2.2,11.9,7.5,18.3,11.7c6-4,10.2-12.6,19.1-14.1c0.3,0.4,0.7,0.8,1,1.2c-1.2,1.2-2.3,2.5-3.6,3.6c-2.1,1.8-4.3,3.6-6.6,5.3
			c-6,4.4-8.4,8.8-5.4,17c4.4,11.9-8.1,26.7-20.6,26.4c-4.2-0.1-6.1-2.2-6.4-6.1c-0.5-5.9,2.3-10.6,5.6-15.1
			c2.2-2.9,4.5-5.9,7.3-8.1c4.2-3.2,2.8-6.1,0.3-9.2c-4.7-5.8-11.2-9.1-18.3-10.3c-16.5-2.7-32.2-0.3-46.2,9.5c-0.7,0.5-1.2,1-2.4,2
			c16.1,4.5,29.2,12,35.2,27.8C160.5,265.8,159.9,266.3,159.4,266.7z M123.9,303.7c0.1,0.1-0.7-0.3-1.3-0.8
			c-8.2-6-15.8-12.5-20.9-21.5c-5-8.9-7.7-18.1-2.4-27.8c2.8-5.2,6.4-10,9.9-15.3c-1.6,0-3.2-0.1-4.8,0
			c-18.2,0.9-34.3,7.2-48.1,19.2c-17.9,15.7-29.8,34.5-30.2,59.2c-0.2,17.4,5.2,32.5,17.7,45c10.7-8.7,22.6-14.7,35.6-18.6
			c7.5-2.2,14.9-3.7,20.1-11.7C106.1,321.5,115.3,313.2,123.9,303.7z M169.2,348.8c-1.3,1.3-2.3,2.1-3.2,3.1
			c-14.4,14.4-31.4,24-51.5,27.3c-11.1,1.8-22.5,1.7-33.8,2.1c-3.2,0.1-4.9,0.7-5.4,4.1c-1.6,10.8-3.6,21.6-5.1,32.4
			c-0.9,6.1-0.3,6.4,5.9,7c15.6,1.5,30.4-1.6,45.1-6.4c17.3-5.7,32.5-14.3,43.3-29.2C173.3,376.9,175.4,363.5,169.2,348.8z
			 M77,378.6c12.1,1.3,22.4,0.5,32.7-1.5c21.5-4.1,39.3-14.5,54.4-30c2.8-2.9,2.7-4.9,0.4-8.1c-9.6-12.7-22.2-22.1-34.9-31.3
			c-1.1-0.8-4-0.4-5.1,0.5c-4.8,4-9.4,8.2-13.7,12.8c-4.6,5-8.6,10.5-13.4,16.4c8.6,0,15.9-0.1,23.2,0.1c1.5,0.1,2.9,1.6,4.4,2.5
			c-0.2,0.6-0.5,1.1-0.7,1.7c-7.3,0-14.5,0-21.8,0c-5.8,0-10.1,2.3-12.3,7.9c-0.7,1.8-1.9,3.5-2.8,5.3C84.2,362.5,80.9,370,77,378.6
			z M62.9,421.9c2.8-14.2,5.6-27.9,8.2-40.8c-8.4-3.9-16.8-7.7-25.6-11.8c-6.7,9.3-10.5,19.7-6.3,31.6
			C43.3,412.4,52,418.8,62.9,421.9z M176.7,327.9c0.7-1.4,1.6-2.6,2-3.9c2.7-8.3,4.8-16.9,0.3-25.2c-7.6-13.9-26.6-10-37.8-0.9
			C152.9,307.8,164.7,317.7,176.7,327.9z M89.3,344.4c-15.9,3.4-30.1,9-40.9,21.8c6.6,5.5,13.6,9.2,21.5,10.7
			c1.4,0.3,3.9-0.6,4.4-1.6C79.4,365.2,84.1,355.1,89.3,344.4z M198.3,247.5c-0.6-0.3-1.2-0.5-1.8-0.8c-3.3,6-6.8,11.8-9.7,18
			c-0.8,1.7,0.3,4.3,0.5,6.5c2.2-0.8,5-1,6.5-2.5C199.5,262.6,200.8,255.4,198.3,247.5z"/>
		<path d="M452,346c0-1.4-0.1-1.9,0-2.3c0.5-3.4,2.1-6.9-1.5-9.6c-3.9-3-8.2-3.2-12.7-1.4c-11.6,4.7-18.9,14.3-26.2,23.6
			c-8,10.1-15.8,20.5-20,33c-1.1,3.3-1.8,6.7-2.3,10.1c-0.2,1.4,0.5,4,1.4,4.3c1.4,0.5,3.8,0.1,5-0.8c4.1-3.4,8.2-6.8,11.5-10.9
			c8.2-10,15.9-20.3,23.9-30.5c0.8-1,1.8-2,2.8-2.8c2.7-2,4.9-1.5,5.3,2c0.4,3.3-0.1,6.6,0.1,9.9c0.4,8.3,0.2,16.7,1.8,24.8
			c1.8,9.7,8.2,12.2,17.2,7.9c7.9-3.8,13-9.4,14.4-18.7c2-13.2,4.6-26.2,3.9-39.7c-0.3-6.5,7.5-13.5,13.8-12.8
			c3.4,0.4,4.2,2.6,3.5,5.8c-3.1,14.8-6,29.6-9,44.4c-0.1,0.4,0.1,0.9,0.2,2.8c3.7-3.8,7.1-6.6,9.7-10
			c10.4-13.5,20.6-27.2,30.7-40.9c3.3-4.5,11.1-6.3,15.1-2.5c1.2,1.1,1.3,4.2,0.8,6.1c-4.1,15.7-8.8,31.3-12.6,47.1
			c-2,8.2-3.3,16.6-0.8,25.2c1.3,4.4,4.1,6.1,7.7,4.3c4.9-2.5,9.3-6.1,13.9-9.1c1.2-0.8,2.4-1.4,3.6-2.1c0.5,0.4,1.1,0.8,1.6,1.2
			c2.2-10.9,4.9-21.7,6.5-32.7c1.3-9,1.4-18.2,1.9-27.3c0.3-6.1,7.9-12.9,13.9-12.2c3.1,0.4,4.2,2.3,3.6,5.3c-3,14.6-6,29.2-9,43.9
			c-0.2,0.9,0,1.8,0,4.4c6-6.6,11.6-11.9,16.1-17.9c8.5-11,16.4-22.4,24.5-33.8c3.1-4.4,10.8-6.2,14.8-2.6c1.2,1.1,1.6,4.2,1,6.1
			c-3.5,13.1-8,26.1-11,39.3c-2.4,10.6-5.5,21.4-2.4,32.5c1.5,5.4,3.5,7,8.6,4.6c4.6-2.1,8.5-5.5,12.7-8.4c1.2-0.8,2.1-1.9,4.3-2.3
			c-0.6,1.7-0.8,3.6-1.7,5.1c-5.2,8.3-17.3,12.7-26.8,9.9c-8-2.4-12.2-10.9-11.6-21.9c0.9-14.2,4.2-27.9,8.2-41.5
			c0.5-1.7,0.9-3.5,1.6-6.5c-7.7,8.7-14.7,16.4-21.3,24.3c-6.8,8.1-13.6,16.3-19.7,24.9c-3,4.3-4.4,9.8-10,11.7
			c-1.9,0.6-4.2,0.1-6.6,0.1c-4.3,2.6-9,6.9-14.4,8.5c-16.7,4.9-25.2-4-24.9-20.2c0.2-14.6,4-28.6,8.1-42.5c0.5-1.8,0.9-3.7,1.4-5.6
			c-0.4-0.2-0.7-0.4-1.1-0.7c-13.2,16.3-26.5,32.6-39.7,49c-2.9,3.5-5.3,7.4-8.5,10.6c-1.2,1.2-3.9,0.9-5.9,1.2
			c-0.1-1.8-0.1-3.7-0.2-5.5c0-0.5-0.1-0.9-0.2-2.1c-4.4,2.4-8.4,4.9-12.6,7c-13.7,6.8-24.9,1-27.5-14.1c-0.9-5-1.6-10.1-2.6-16.6
			c-2.9,4.2-4.9,7.6-7.3,10.5c-5.7,6.6-11.3,13.3-17.5,19.4c-4.5,4.4-10.4,5.7-16.1,2.5c-6.1-3.5-6.4-9.8-5.9-15.9
			c1.9-23.6,14.7-41.4,31-57.2c7.6-7.4,16.3-13.5,27.3-13.6c5.1,0,10.4,1.7,15.2,3.6c5.1,2.1,7.2,10.4,4.4,15.2
			C455.1,343.9,453.6,344.6,452,346z"/>
		<path d="M766.4,362.2c-7.9,9.8-15.8,19.5-23.5,29.4c-1,1.3-1.2,3.4-1.6,5.1c-1.5,6.1-3.9,11.6-10.8,14.7c-0.8-2.7-1.5-5.1-2.3-7.8
			c-3.1,1.6-6.2,3.2-9.2,4.7c-15.2,7.6-25.3,1.4-28.4-14.3c-1-5.2-1.2-10.5-1.9-17.3c-2.3,3.2-4,5.7-5.7,8.1
			c-6.1,8.9-11.9,18-21.3,24c-9.7,6.2-19.5,1.5-20.3-9.9c-0.9-13.6,4.5-25.3,11.1-36.7c6.8-11.8,15.4-22.1,26.4-30.2
			c10.6-7.8,22.3-11.8,35.3-5.2c4.2,2.1,6.2,5.7,6.4,10.4c0.1,3.9-1.2,6.7-4.9,8.2c-0.3-0.5-0.7-0.8-0.7-1c1.4-3.4,3-6.9-0.4-10
			c-4-3.6-9.1-4.6-13.4-1.8c-7.4,4.9-15.3,9.8-20.7,16.6c-8.9,11-16.3,23.3-23.8,35.4c-2.4,3.8-3.4,8.7-4.3,13.2
			c-0.4,1.9,0.4,4.9,1.8,6c1,0.8,4.4-0.1,5.7-1.3c5.5-5.2,11-10.5,15.8-16.4c6.1-7.4,11.3-15.6,17.3-23.1c1.9-2.4,5.1-3.8,7.6-5.6
			c0.9,3,2.3,5.9,2.4,9c0.4,8.1,0,16.3,0.4,24.4c0.3,5.7,1.7,11.5,8,13.6c4.6,1.6,14.9-2.7,17.9-6.9c0.5-0.8,0.8-1.8,0.9-2.7
			c3.6-18.7,7.2-37.5,10.8-56.2c0.1-0.3-0.2-0.6-0.3-1.2c-7.5-0.3-9.3,6.1-12.6,12.1c-1.8-5.6-0.6-9.1,2.5-12c1.7-1.6,3.5-3.4,5.6-4
			c6.7-1.8,9.2-6.7,11.3-12.8c9-26.1,21.8-50.2,39.4-71.5c11.6-13.9,24.9-26,42.1-32.4c15.7-5.8,31.5-6.4,46.2,3.9
			c17.2,12.2,18.3,38.2,3.7,53.6c-10.1,10.7-22.3,18.3-35.4,24.3c-18.2,8.4-36.7,15.9-55.3,23.2c-9.7,3.8-19.8,6.4-29.9,9.3
			c-3.6,1-5.6,2.9-6.4,6.6c-3,14.8-6.3,29.6-9.4,44.3c-0.2,0.9,0,1.8,0,4c7.2-9.3,13.7-17.6,19.9-26.1c3.8-5.2,6.9-10.8,10.5-16.2
			c1.5-2.2,3.2-4.3,5.3-5.9c1.3-1,3.4-1.5,4.9-1.1c0.7,0.2,1.3,2.9,1.2,4.3c-1,8.3-2.8,16.5-3.2,24.8c-0.4,9.6-0.4,19.3,0.8,28.8
			c0.8,6.8,5,8.9,10.7,5.4c6.9-4.3,12.8-10.3,18.9-15.8c2.9-2.6,5.2-5.9,8.7-10c0.1,2.3,0.6,3.4,0.2,4.1
			c-8.4,12.8-18.4,24.1-32.2,31.1c-8.7,4.4-16.2,0.7-19.2-8.4c-3.7-11.2-2.9-22.7-2-34.2c0.1-1.6,0.4-3.2,0.6-4.8
			C767.3,362.5,766.9,362.4,766.4,362.2z M756.6,327.2c5.8-2.1,11.7-4.1,17.5-6.2c26.3-9.7,51.7-21.4,76-35.4
			c11.1-6.4,21.7-13.4,29.8-23.7c6.3-8,7.1-17.8,1.7-26.4c-5.9-9.5-15.6-12.3-25.7-12.5c-28.8-0.5-51.5,11.6-68.9,34.4
			C771.4,278,764.7,302.5,756.6,327.2z"/>
		<path d="M1236.9,346.2c0-1.4,0.1-1.9,0-2.4c-0.4-3.2,0.2-7.4-1.6-9.5c-3.3-3.7-8.2-3.3-12.9-1.4c-8.3,3.3-14.5,9.4-20,15.9
			c-10.4,12.2-20.3,24.9-26.1,40.1c-1.2,3.2-2,6.7-2.3,10.1c-0.2,1.7,0.7,4.8,1.7,5.1c1.8,0.4,4.5-0.2,5.9-1.4
			c4.9-4.4,9.9-8.9,14-14.1c6.6-8.1,12.4-16.7,18.7-25.1c1.2-1.6,2.6-3.1,4.1-4.4c3.3-2.8,5.6-2.1,6.1,2.2c0.4,3.1-0.2,6.3-0.1,9.4
			c0.4,8.1,0.1,16.4,1.7,24.3c2,10.4,9.2,13.2,18.2,7.4c6.1-3.9,11.4-9,17-13.6c1-0.8,2-1.6,3-2.4c0.3,0.3,0.6,0.5,1,0.8
			c-0.4,1-0.5,2.1-1.1,2.9c-7.4,9.1-16.6,15.8-27.4,20.1c-10.7,4.3-20.1-0.2-23.3-11.6c-1.8-6.5-2.4-13.4-3.7-21
			c-3.7,5.3-6.9,10.6-10.8,15.3c-4.3,5.2-8.9,10.2-13.9,14.7c-6,5.3-12.7,6.3-19.4,0.3c-6,8.5-13.3,14.8-22.9,18.6
			c-13.1,5.1-27.5-2.1-31.1-15.9c-2.7-10.4-2.1-20.8-0.9-31.3c2.5-23.2,8.3-45.8,15.5-67.9c5.1-15.6,12.3-30.1,24.7-41.4
			c4.7-4.3,10.3-6.5,16.7-6.9c1.3-0.1,2.6,0.5,3.9,0.8c0,0.5,0.1,1,0.1,1.5c-1.3,0.7-2.6,1.7-4,1.9c-6.6,0.9-10.5,5.4-13.8,10.4
			c-8.7,12.8-14,27.2-17.2,42.1c-4.6,21.9-8.3,44.1-11.8,66.2c-1.6,9.9-1,20,3.7,29.2c3.4,6.7,10.1,8.7,16.9,5.6
			c7.3-3.4,12.8-8.8,17-15.6c0.9-1.4,0.9-3.5,0.8-5.2c-1.1-12.8,3.2-24.1,9.3-35c6.9-12.4,15.6-23.3,26.9-32
			c10.8-8.3,22.5-12.6,36-6.1c5.5,2.7,8.3,10.3,5.3,15.7C1240.1,343.8,1238.6,344.7,1236.9,346.2z"/>
		<path d="M1306.7,356.9c-3,4.8-5.9,9.8-9.2,14.4c-5.4,7.8-11,15.3-16.5,23c-3.3,4.6-6.3,9.3-9.8,13.6c-1.3,1.6-3.7,2.3-5.5,3.4
			c-0.6-0.3-1.3-0.6-1.9-1c0.8-5.6,1.8-11.1,2.4-16.8c1-9.9,2.5-19.8,2.5-29.7c0-9.8-4.9-12.1-13.9-7.9c-0.9,0.4-1.8,0.9-3,1.5
			c-0.2-1-0.7-1.9-0.4-2.5c3.1-6.3,14.4-10.8,21.2-8.5c4.2,1.4,6.9,4.1,7,8.6c0.2,9.1,0.2,18.2,0.3,27.3c0,1.2,0,2.5,0,5.3
			c4.9-6.5,9-11.8,13-17.1c4.4-6,8.9-11.9,13.1-18.1c1.8-2.7,2.7-6,4.4-8.9c1.3-2.2,2.8-4.8,4.9-5.8c5.2-2.6,8.8,0.5,7.7,6.5
			c-2.4,12.6-4.8,25.1-7.7,37.5c-2.2,9.8-5.1,19.5-8.2,31c3.4-1.8,6.3-2.8,8.4-4.6c2-1.8,3.2-4.5,5.3-7.6c2,6.6-0.9,10.1-4.6,13
			c-1.9,1.5-4.3,3.2-6.6,3.4c-6,0.7-7.3,5.1-9.2,9.6c-14,33.2-32.1,63.6-60.7,86.5c-16.6,13.3-35.7,19.2-56.8,16.2
			c-11.8-1.7-22.2-10.7-26.5-23.7c-6.6-19.7,5.9-39.2,22.9-49c22-12.7,45.8-21,70-28.2c13.3-4,26.8-7.7,40.2-11.3
			c3.8-1,6.1-3.1,6.9-6.9c2.7-12.8,5.6-25.6,8.3-38.5c1-4.8,2-9.7,3-14.6C1307.3,357.2,1307,357.1,1306.7,356.9z M1292.9,423.2
			c-0.5-0.5-1.1-1.1-1.6-1.6c-5.6,1.5-11.2,2.8-16.6,4.6c-28.1,9.5-55.9,20.1-82.3,33.8c-11.5,5.9-22.3,12.8-29.9,23.9
			c-7.7,11.3-3.8,26.1,8.6,31.9c14.5,6.7,29.7,6.2,44.4,2.4c22.3-5.8,38.7-20.4,49.9-39.9C1275.6,460.4,1283.8,441.6,1292.9,423.2z"
			/>
		<path d="M367.1,350.1c-8.8,23.5-23.2,41.9-43.5,55.4c-4.6,3.1-10.6,4.8-16.2,5.5c-7.6,0.9-9.9-1.4-12.4-9c-4.1,2.3-8,4.7-12.2,6.7
			c-14.2,6.9-24.5,1.9-28.1-13.9c-1.2-5.3-1.3-10.9-2-17.7c-2.3,3.2-4.2,5.8-5.9,8.3c-6,8.7-11.8,17.6-21,23.5
			c-9.7,6.2-19.6,1.5-20.3-9.9c-0.8-13.7,4.6-25.6,11.3-37.1c6.7-11.4,15-21.4,25.7-29.4c11-8.2,22.8-12.4,36.1-5.4
			c3.8,2,6.4,5.2,5.8,9.6c-0.4,2.8-2.1,5.5-3.3,8.2c-0.2,0.4-1.1,0.4-0.6,0.2c-0.7-3.7-0.3-8.1-2.3-10.5c-3.5-4.2-8.7-3.7-13.7-1.5
			c-9.7,4.3-16.6,11.9-23,19.9c-9.6,12.1-19.2,24.2-23.6,39.4c-1.1,3.9-4.2,8.8,0.1,11.4c4.4,2.7,8.3-2,10.8-5
			c8.6-10,16.6-20.6,24.8-30.9c2.4-3,4.6-6.1,7.2-8.8c1-1,3.1-1.5,4.5-1.2c0.9,0.2,1.8,2.3,1.8,3.6c0.1,5-0.7,10-0.3,15
			c0.7,7.7,1.7,15.4,3.3,23c0.9,4.4,4.9,6.4,8.9,5.1c5.4-1.8,10.6-4.4,15.3-7.6c1.6-1.1,1.5-4.8,2.1-7.3c3.2-11.5,6.5-23,9.4-34.6
			c1.2-4.6,1-9-3.2-12.7c-3.2-2.8,1.2-11.8,6-12.8c0.3-0.1,0.7-0.1,1-0.1c11.6-1.3,14.8,2.8,11.9,14.1c-4,16.1-7.6,32.3-11.3,48.5
			c-0.3,1.1-0.4,2.3-0.5,3.5c-0.2,7.2,3.6,10,9.5,5.9c6.8-4.7,13.2-10.1,18.8-16.1c9.8-10.5,17.8-22.3,22.1-36.2
			c0.6-1.8,0.1-4.5-0.9-6.2c-3.5-5.7-5.8-11.6-5.1-18.4c0.4-3.2,1.8-6.5,5.1-6.3c2.4,0.1,6,2.4,6.7,4.5c1.6,4.7,2.2,10,2.3,15
			c0.2,6.1,2.9,9,9.2,8c1.5-0.2,2.8-1.1,4.2-1.4c1.3-0.2,2.6,0.1,3.9,0.2c-0.5,1.4-0.8,3.8-1.7,4.1c-3.6,1.2-7.5,2.1-11.3,2.5
			C371,351.5,369,350.5,367.1,350.1z"/>
		<path d="M990,509.2c-6.2-0.7-12-1.5-17.8-2c-1.4-0.1-2.8,0.5-4.2,0.9c-11.8,3.6-24.7-1.3-29.7-11.2c-5.4-10.8-2.8-23.7,6.5-30.5
			c6.9-5.1,14.6-6,22.8-4.1c1.3,0.3,2.6,0.6,3.8,0.9c0.1,0,0.3-0.1,1.1-0.2c0-5.1,0-10.3,0-15.8c6,0,11.5,0,17.3,0
			C990,467.4,990,487.6,990,509.2z M956.9,485.3c0,5.6-0.1,11.3,0.1,16.9c0,1.4,0.8,3.9,1.2,3.9c3.7-0.2,7.6-0.3,11-1.5
			c1.7-0.6,3.4-3.6,3.5-5.5c0.4-8.6-0.2-17.3,0.3-25.9c0.3-5.3-1.9-7.6-6.6-8.5c-1.6-0.3-3.3-0.6-4.9-0.9c-3.1-0.5-4.6,0.7-4.6,4.1
			C957,473.7,956.9,479.5,956.9,485.3z"/>
		<path d="M380.8,506.8c0,4.3,0,7.8,0,11.3c0,2.3-0.6,3.8-3.3,3.7c-4.3-0.1-8.6,0-13.4,0c0-19.9,0-39.4,0-60.1
			c5.6,0.5,11.2,1,16.9,1.4c1.4,0.1,2.9,0.1,4.2-0.3c10.6-3.1,20.2-1.6,27.8,6.9c6,6.6,6.7,19.1,2,28.3
			c-4.5,8.8-17.3,13.3-28.9,10.2C384.6,507.8,383.2,507.5,380.8,506.8z M396.7,506.7c0-13.8,0-27.1,0-40.4c0-0.7-0.7-2.1-1-2.1
			c-3.9,0.4-7.9,0.6-11.5,1.8c-1.5,0.5-3.1,3.4-3.2,5.3c-0.4,7.3-0.2,14.6-0.2,21.9c0,11.3,0.8,12.2,12,13.3
			C393.8,506.8,394.8,506.7,396.7,506.7z"/>
		<path d="M298,461.4c6.1,0.8,11.7,1.6,17.4,2.1c1.4,0.1,2.9-0.5,4.3-0.9c9.9-2.7,19-1.3,26.2,6.4c6.8,7.3,7.5,16.1,4.4,25.2
			c-4,11.7-17.2,17.7-30.4,14.1c-1.4-0.4-2.8-0.8-5.3-1.5c0,4.1-0.1,7.7,0,11.3c0.1,2.8-0.9,3.9-3.7,3.8c-4.1-0.2-8.3,0-12.9,0
			C298,501.9,298,482.4,298,461.4z M330.7,485.8c0-5.8,0.1-11.7-0.1-17.5c0-1.4-0.8-3.9-1.1-3.9c-3.9,0.3-7.9,0.4-11.5,1.7
			c-1.6,0.6-3.1,3.7-3.2,5.8c-0.4,8.3-0.2,16.6-0.2,25c0,6.8,1,8,7.6,9.2c1.3,0.2,2.7,0.3,4,0.6c3.2,0.7,4.6-0.4,4.5-3.8
			C330.5,497.1,330.7,491.5,330.7,485.8z"/>
		<path d="M638.2,508.2c-6.4,0-12.1,0-18.4,0c0-9.6,0-18.8,0-28.1c0-2,0-4,0-6c0-12.1,0-11.9,11.9-12.2c4.8-0.1,8.1,0.5,6.3,7.4
			c3.1-2.2,5.1-3.6,7.1-4.9c5.2-3.3,10.9-4,16.8-2.3c4.7,1.4,8.1,4.6,8.4,9.5c0.5,11.3,0.5,22.6,0.5,33.9c0,1-1.9,2.7-2.9,2.8
			c-4.8,0.3-9.6,0.1-15.2,0.1c0-4.3,0-8.2,0-12.1c0-8.5,0.1-17-0.1-25.5c0-1.7-0.6-4.4-1.5-4.7c-1.6-0.5-3.9,0.1-5.5,1
			c-4.8,2.8-7.8,6.6-7.4,12.9C638.6,489.4,638.2,498.7,638.2,508.2z"/>
		<path d="M249.2,462.1c0,9.5,0,18.3,0,27.1c0,4.2,0.1,8.3,0,12.5c-0.2,3.8,1.8,4.1,4.7,3.3c5.8-1.6,9.5-6.4,9.5-12.4
			c0-10,0-19.9,0-30.5c5.7,0,10.8-0.1,15.9,0.1c0.9,0,2.3,1.9,2.3,2.9c0.2,13.3,0.2,26.7,0,40c0,1.1-1.9,3.1-3.1,3.2
			c-4.8,0.4-9.6,0.2-14.6,0.2c-0.4-2.1-0.8-3.8-1-5c-5.1,1.9-9.8,4.5-14.8,5.5c-10.5,2-17.2-3.8-17.3-14.5c-0.1-9.3,0.1-18.7-0.1-28
			c-0.1-3.5,1.1-4.7,4.6-4.6C239.7,462.3,244,462.1,249.2,462.1z"/>
		<path d="M1449.3,338.3c-0.5-1.1-1.3-2.1-1.6-3.3c-0.9-3.7-3.4-4.8-6.8-4.2c-12.3,2.1-27.3,16.1-25.5,29.9
			c1.1,8.1,6.2,13.7,11.8,19.1c6.5,6.2,8.5,12.3,6.6,22c9.2-5,17.6-9.6,26-14.1c0.3,0.3,0.6,0.7,0.8,1c-3.3,2.6-6.5,5.5-10,7.8
			c-7.8,5.2-15.7,10.4-23.8,15.1c-3.9,2.3-8.3,4.3-12.8,5.2c-9.4,1.7-18.7,5.6-28.4,2.2c-1.9-0.7-4.8-2.7-4.8-4.1
			c0-1.9,2-4.2,3.7-5.7c1.2-1.1,3.3-1.4,5.1-1.6c10.3-1.1,20.5-1.8,30.8-3.1c2.7-0.3,6.2-1.4,7.5-3.4c2.3-3.6,2.3-8-1-11.5
			c-4.3-4.6-9-8.8-13-13.7c-3.3-4.1-6.3-8.6-8.4-13.3c-5-11.9-1.6-22.2,9.2-31.8c7.1-6.3,15.1-8.6,24.4-7.2
			c5.3,0.8,9.4,3.3,11.5,8.3c0.7,1.7,0.4,3.9,0.5,5.8C1450.7,338,1450,338.1,1449.3,338.3z"/>
		<path d="M732.9,491.8c1.6-0.2,3.3-0.6,4.9-0.7c14.7-0.3,24.4-12.7,20.6-26.9c-2.1-7.9-8.4-11.8-15.8-13.6
			c-14.1-3.5-15.1-2.6-15.1,11.6c0,15.1,0,30.3,0,45.8c-7.2,0-14.1,0-21.3,0c0-20.1,0-40.3,0-61.8c12.9,0.7,25.9,0.6,38.6,2.4
			c9.9,1.4,16.2,9.3,17.1,17.8c1.1,10.6-4,20.6-13.1,24.8c-3.4,1.6-7.3,2.3-11,2.9c-1.5,0.3-3.2-0.5-4.8-0.9
			C732.8,492.8,732.8,492.3,732.9,491.8z"/>
		<path d="M185.5,508.5c-6.7,0-12.5,0-18.3,0c-3.4,0-3-2.4-3-4.5c0-13.2,0-26.3,0-39.5c0-5.6,0-11.3,0-17.6c14,0.5,27.7-2,41,2.2
			c8.5,2.7,14,8.9,14.8,18.2c0.8,10.1-4.5,19.7-13.2,23.9c-4.9,2.3-10.1,4-15.5,2.4c-0.1-0.5-0.2-1-0.3-1.6c1.5-0.3,3.1-0.9,4.6-0.9
			c14.6-0.4,23.8-11.3,21.1-25.6c-1.7-8.9-8.3-12.8-16.2-14.9c-3.3-0.9-6.9-0.7-10.4-1.1c-3.5-0.4-4.6,1.1-4.6,4.5
			c0.1,16,0.1,32,0.1,47.9C185.5,503.9,185.5,505.8,185.5,508.5z"/>
		<path d="M820.4,509.4c-7-1-13.1-1.8-19.1-2.5c-1-0.1-2.2,0.7-3.3,0.8c-4.7,0.4-9.6,1.5-14.2,0.9c-9.4-1.3-14.5-7.8-14.3-16.8
			c0.2-8.1,6.3-14.7,15.2-15.7c5.5-0.6,11.1-0.1,17.4-0.1c0-2.3,0.3-5.6-0.2-8.8c-0.2-1.1-2-2.5-3.3-2.8c-6.2-1.4-12.2-0.4-17.8,2.7
			c-1.4,0.8-3.1,1.2-4.6,1.8c-0.3-0.6-0.6-1.1-0.9-1.7c1.8-1.1,3.4-2.7,5.3-3.4c9-3.1,18.3-3.5,27.5-0.7c7.9,2.4,12.1,7.9,12.2,16.3
			C820.6,488.9,820.4,498.4,820.4,509.4z M789.6,478.1c0,9.7,0,19.1,0,28.4c10.1,0.1,12.7-2.4,12.7-11.6c0-2.8-0.3-5.7,0.1-8.5
			c0.7-5.3-2-7.3-6.6-7.8C793.8,478.3,791.9,478.2,789.6,478.1z"/>
		<path d="M906.6,475.9c0-2.1,0.3-5.5-0.2-8.7c-0.1-1.1-2-2.5-3.2-2.8c-6.2-1.5-12.2-0.4-17.9,2.4c-1.5,0.7-3,1.3-4.6,2
			c-0.3-0.5-0.7-1.1-1-1.6c1.5-1.1,2.9-2.6,4.6-3.2c9.4-3.4,18.9-3.9,28.4-0.8c6.9,2.3,11.3,7.2,11.6,14.7c0.4,9,0.2,18,0.3,27
			c0,2.9-1.3,4-3.9,3.6c-5-0.8-10.4,2-15.1-1.9c-0.5-0.4-2.1,0.6-3.2,1c-5.5,2.3-11.1,2.2-16.6,0.6c-7.7-2.2-12.4-9.1-11.8-17
			c0.6-8.1,6.5-14.3,15.3-15.2C894.7,475.5,900.4,475.9,906.6,475.9z M893.2,506.3c9.8,0.7,13.4-2.5,13.4-11.1c0-3.5,0.2-7-0.1-10.5
			c-0.2-1.7-1.1-4.3-2.3-4.7c-3.2-1.1-6.7-1.3-10.1-1.6c-0.2,0-0.8,1.4-0.8,2.1C893.2,489.1,893.2,497.5,893.2,506.3z"/>
		<path d="M505,498.4c-0.8,7-12.3,12.1-22.3,10.8c-15.3-2-24.6-13-22.7-26.8c1.9-14,15.2-23.2,30.2-20.8
			c12.6,2.1,20.7,12.7,18.5,24.9c-7.7,0-15.5,0.2-23.2-0.1c-4.2-0.2-5.7,1.3-5.3,5.4c0.3,3.1,0.3,6.3,0,9.5
			c-0.5,4.4,1.8,5.4,5.5,5.5c5.9,0,11.1-1.8,15.6-5.6C502.4,500.4,503.5,499.6,505,498.4z M492.4,483.7c0.2-1.1,0.4-1.5,0.4-2
			c0-3.6,0.1-7.3,0.1-10.9c0-6.2-5.1-9.3-10.8-6.6c-0.8,0.4-1.7,1.7-1.7,2.6c-0.2,5.6-0.1,11.1-0.1,16.9
			C484.7,483.7,488.4,483.7,492.4,483.7z"/>
		<path d="M1125.9,498.3c-1.6,8.1-14.1,12.6-25.7,10.3c-13.7-2.7-22-14.9-19.2-28c3-13.8,16.4-21.9,31.1-18.7
			c12.1,2.6,19.1,12.6,16.6,24.6c-7.3,0-14.8,0.2-22.2-0.1c-4.3-0.2-6.2,1-5.8,5.5c0.3,3.3,0.2,6.7,0,10c-0.2,3.6,1.5,4.7,4.7,4.8
			c6.3,0.2,11.8-1.5,16.6-5.6C1123.1,500.4,1124.2,499.6,1125.9,498.3z M1100.9,484c3.7,0,6.8,0.3,9.9-0.1c1.1-0.1,2.7-1.9,2.8-3
			c0.3-4.5,0.3-8.9,0.1-13.4c-0.2-4.3-3.8-3.5-6.4-3.6c-2.4-0.1-6-1.2-6.3,2.8C1100.6,472.2,1100.9,477.8,1100.9,484z"/>
		<path d="M519.2,502.2c3.5,1.4,6.9,3.3,10.5,4.1c2.8,0.7,6,0.6,8.8,0c4-0.9,4.7-3.6,1.7-6.5c-3.7-3.5-7.9-6.6-11.7-10.1
			c-2.8-2.6-5.6-5.3-7.7-8.4c-3.8-5.5-2.7-11.5,2.2-15.6c6.4-5.3,20.2-6.1,27-1.3c1,0.7,1.6,1.8,2.5,2.7c-0.3,0.4-0.5,0.7-0.8,1.1
			c-1.2-0.5-2.3-1.3-3.6-1.6c-4-1-7.9-2.5-11.9-2.7c-3.5-0.2-4.6,2.7-2.3,5.4c1.8,2.1,4.2,3.8,6.3,5.6c4,3.5,8.4,6.7,11.8,10.7
			c5.4,6.3,3.8,14.8-2.9,19.6c-7.1,5.1-20.8,5.6-28.1,1c-1.2-0.7-1.9-2.1-2.9-3.2C518.6,502.8,518.9,502.5,519.2,502.2z"/>
		<path d="M1068.9,467.7c-3.5-1.3-6.9-3.1-10.6-3.7c-2.4-0.4-5.1,1-7.7,1.6c1.2,2.2,2,4.8,3.8,6.4c4.1,3.9,8.9,7,12.9,11
			c8.7,8.5,6.2,20-5,24.4c-7.5,2.9-15,2.7-22.4-0.6c-1.7-0.8-3-2.3-4.5-3.5c0.4-0.5,0.7-1,1.1-1.5c1.3,0.7,2.6,1.7,4,2
			c4.9,1.1,9.9,2.2,14.9,2.6c1.3,0.1,3.4-1.6,4-3c0.4-0.9-0.9-3.1-2-4.1c-4.1-3.7-8.5-7-12.5-10.7c-2.4-2.2-4.8-4.7-6.6-7.4
			c-3.6-5.4-2.7-11.2,2-15.3c6.3-5.6,20.5-6.4,27.4-1.5c0.8,0.6,1.4,1.6,2,2.5C1069.4,467.2,1069.2,467.5,1068.9,467.7z"/>
		<path d="M853.4,508.2c-6.1,0-11.5,0-17.4,0c0-15.2,0-30.4,0-45.8c5.8,0,11.3,0,17.3,0c0,3.9,0,7.5,0,11.1c0.4,0.1,0.7,0.3,1.1,0.4
			c1-1.6,1.7-3.3,2.9-4.6c2.7-2.8,5.6-5.5,8.7-7.7c0.8-0.6,3.2,0.3,4.4,1.2c0.6,0.5,0.8,2.9,0.2,3.5c-1,1-3,2-4.2,1.6
			c-4.3-1.3-6.8,0.9-7.9,4.1c-2.1,6-4,12.3-5,18.6C852.7,496.2,853.4,502,853.4,508.2z"/>
		<path d="M587.1,462.1c5.1,0,10.2-0.1,15.2,0.1c1,0,2.6,1.7,2.6,2.6c0.2,14.3,0.1,28.5,0.1,43.2c-6.1,0-11.8,0-18,0
			C587.1,493.1,587.1,478,587.1,462.1z"/>
		<path d="M1005.8,508.2c0-14.7-0.1-28.9,0.1-43c0-1,1.7-2.1,2.7-3.1c0.3-0.3,1,0,1.5-0.1c14-0.4,14-0.4,14,13.5
			c0,10.8,0,21.5,0,32.6C1017.8,508.2,1012.1,508.2,1005.8,508.2z"/>
		<path d="M448.2,508.3c-6.4,0-12.1,0-18.1,0c0-15.3,0-30.3,0-46.1c5.3,0,10.6-0.1,15.8,0.1c0.8,0,2.2,2,2.2,3
			C448.2,479.4,448.2,493.5,448.2,508.3z"/>
		<path d="M1365,326.9c1-2.1,1.9-4.2,3.1-6.2c2.8-4.4,5.9-8.7,8.7-13.1c1.7-2.6,1.3-4.7-1.1-6.9c-3.7-3.6-3-8.3-1.4-12.5
			c1.6-4.2,5.1-6.3,9.7-6.4c4.4-0.1,6.8,2.1,7.5,6.3c1.1,6.1-0.4,11.6-4,16.4c-5.2,7-10.4,14.1-15.8,20.9c-1.2,1.5-3.6,2-5.4,3
			C1366,327.9,1365.5,327.4,1365,326.9z"/>
		<path d="M595.4,454c-2-0.7-4.4-1-6.3-2.2c-3.6-2.3-3.6-7.2,0-9.6c4.1-2.6,8.6-3,12.7-0.4c1.7,1.1,3.5,3.6,3.4,5.4
			c-0.1,1.8-2.1,3.9-3.8,5.1C599.9,453.4,597.7,453.5,595.4,454z"/>
		<path d="M438.2,454c-2-0.7-4.4-1.2-6.2-2.4c-3.1-2-3.2-6.1-0.7-8.6c3.5-3.5,11.4-3.7,15.1-0.3c3.4,3.1,2.8,7.6-1.6,9.6
			C442.9,453.2,440.7,453.4,438.2,454z"/>
		<path d="M1014.9,454.6c-3.1-1.5-6.2-2-7.4-3.8c-1.2-1.8-1.4-5.5-0.3-7.3c2.4-3.9,10.4-4.3,14.4-1.3c2.7,2,4.3,5,1.9,7.6
			C1021.3,452,1017.8,453,1014.9,454.6z"/>
		<path class="st1" d="M1025.7,368.4c-3.4,13.6-9.1,25.4-16.2,36.6c-10,15.6-23,27.7-39.6,36c-10.8,5.3-22.1,7.4-33.9,5.5
			c-7.5-1.2-13.1-5.4-16.5-13.1c4.3-1.1,8.4-2,12.4-3.3c18-5.8,32.3-16.7,43.7-31.4c6.3-8.1,11.5-17,17.2-25.5
			c0.9-1.3,2-3.1,3.3-3.4C1005.7,368.1,1015.3,367.1,1025.7,368.4z"/>
		<path class="st1" d="M894.4,288.7c-3.9-11.1,3.8-41.5,22.3-54.9c21.2-15.2,54.7-19.9,66.5-8.7C944.3,233,915,254.3,894.4,288.7z"
			/>
		<path class="st1" d="M1029.7,287.3c3.1,25.7,3.9,51.4-2.7,77.6c-9.7,0-19.4,0-29.4,0c10-25.9,20-51.9,30-77.9
			C1028.3,287.1,1029,287.2,1029.7,287.3z"/>
		<path class="st1" d="M916.6,428.5c1.5-5.9,2-11.3,4.2-15.8c10.8-22.2,30.1-33,53.1-38.5c0.4-0.1,0.9,0.2,1.4,0.3
			C966.6,395.2,942.8,424.5,916.6,428.5z"/>
		<path class="st1" d="M1041.5,366c-3.6-0.2-6.5-0.4-10.1-0.6c0.5-3.5,0.8-6.6,1.5-9.6c5-19.9,6.2-40,4.1-60.3
			c-0.6-5.9-2.5-11.6-3.8-17.4c-0.2-0.9-0.5-2.1-0.1-2.8c2.3-4.5,4.8-8.9,7.9-13.3C1055,296.6,1049.1,331,1041.5,366z"/>
		<path class="st1" d="M1029.3,266c-5.8-14.1-13.8-25.1-26-34.3c8.4,0.4,14.7,3.5,20.1,7.6c4.8,3.7,8.7,8.5,12.6,13.2
			c0.8,0.9,0.6,3.5-0.1,4.8C1034.2,260.1,1032,262.5,1029.3,266z"/>
		<path class="st1" d="M1058,373.3c-7.5,13-14.3,25.8-24.2,36.5c-0.5-0.2-0.9-0.5-1.4-0.7c1.9-4.2,4-8.3,5.7-12.5
			c2.7-6.6,5.3-13.2,7.5-20c1.6-4.8,4.1-6.5,8.8-4.4C1055.4,372.6,1056.4,372.8,1058,373.3z"/>
		<path class="st1" d="M125.9,303.7c-8.6,9.6-17.8,17.9-24.3,27.9c-5.2,8-12.5,9.4-20.1,11.7c-13,3.8-24.9,9.9-35.6,18.6
			c-12.5-12.6-18-27.6-17.7-45c0.3-24.8,12.2-43.6,30.2-59.2c13.7-12,29.8-18.3,48.1-19.2c1.6-0.1,3.2,0,4.8,0
			c-3.5,5.3-7.1,10.1-9.9,15.3c-5.3,9.7-2.6,18.9,2.4,27.8c5.1,9,12.8,15.5,20.9,21.5C125.2,303.4,126,303.7,125.9,303.7z"/>
		<path class="st1" d="M169.2,348.8c6.2,14.7,4.1,28.2-4.7,40.4c-10.8,14.9-26,23.6-43.3,29.2c-14.7,4.8-29.5,7.9-45.1,6.4
			c-6.1-0.6-6.7-0.9-5.9-7c1.6-10.8,3.5-21.6,5.1-32.4c0.5-3.4,2.1-4,5.4-4.1c11.3-0.4,22.7-0.3,33.8-2.1c20-3.3,37.1-13,51.5-27.3
			C166.9,350.9,167.9,350,169.2,348.8z"/>
		<path class="st1" d="M77,378.6c3.9-8.6,7.2-16.1,10.6-23.6c0.8-1.8,2-3.5,2.8-5.3c2.2-5.6,6.4-7.9,12.3-7.9c7.3,0,14.5,0,21.8,0
			c0.2-0.6,0.5-1.1,0.7-1.7c-1.5-0.9-2.9-2.4-4.4-2.5c-7.3-0.3-14.6-0.1-23.2-0.1c4.8-5.9,8.8-11.4,13.4-16.4
			c4.2-4.6,8.9-8.8,13.7-12.8c1.1-0.9,4-1.3,5.1-0.5c12.7,9.2,25.3,18.6,34.9,31.3c2.4,3.1,2.4,5.2-0.4,8.1
			c-15.1,15.6-32.9,25.9-54.4,30C99.4,379.2,89.1,379.9,77,378.6z"/>
		<path class="st1" d="M62.9,421.9c-10.9-3.1-19.6-9.5-23.7-21c-4.2-11.9-0.5-22.3,6.3-31.6c8.8,4.1,17.2,7.9,25.6,11.8
			C68.4,394,65.7,407.7,62.9,421.9z"/>
		<path class="st1" d="M176.7,327.9c-12-10.1-23.8-20.1-35.5-30c11.2-9.1,30.2-13,37.8,0.9c4.5,8.3,2.5,16.8-0.3,25.2
			C178.3,325.3,177.4,326.5,176.7,327.9z"/>
		<path class="st1" d="M89.3,344.4c-5.2,10.8-9.9,20.9-15,30.8c-0.5,1.1-3.1,1.9-4.4,1.6c-8-1.5-14.9-5.2-21.5-10.7
			C59.2,353.4,73.4,347.8,89.3,344.4z"/>
		<path class="st1" d="M198.3,247.5c2.5,8.5,1.2,15.1-4.5,21.2c-1.4,1.5-3.4,2.9-6.5,2.5c-1.7-2.3-1.3-4.8-0.5-6.5
			c2.9-6.2,6.4-12,9.7-18C198.1,246.7,197.9,246.9,198.3,247.5z"/>
		<path class="st1" d="M756.6,327.2c8.2-24.7,14.8-49.2,30.5-69.7c17.4-22.8,40.1-35,68.9-34.4c10.1,0.2,19.8,3,25.7,12.5
			c5.4,8.6,4.6,18.4-1.7,26.4c-8.1,10.2-18.7,17.3-29.8,23.7c-24.3,14-49.7,25.7-76,35.4C768.3,323.1,762.4,325.1,756.6,327.2z"/>
		<path class="st1" d="M1292.9,423.2c-9.1,18.4-17.3,37.2-27.5,55c-11.2,19.5-27.5,34.1-49.9,39.9c-14.8,3.8-29.9,4.4-44.4-2.4
			c-12.3-5.7-16.3-20.6-8.6-31.9c7.5-11,18.4-18,29.9-23.9c26.4-13.7,54.2-24.2,82.3-33.8c5.4-1.8,11.1-3.1,16.6-4.6
			C1291.9,422.1,1292.4,422.6,1292.9,423.2z"/>
		<path class="st1" d="M956.9,485.3c0-5.8,0.1-11.6,0-17.4c-0.1-3.3,1.4-4.5,4.6-4.1c1.6,0.2,3.3,0.6,4.9,0.9
			c4.7,0.9,6.9,3.2,6.6,8.5c-0.5,8.6,0.1,17.3-0.3,25.9c-0.1,2-1.8,4.9-3.5,5.5c-3.4,1.2-7.3,1.3-11,1.5c-0.3,0-1.1-2.5-1.2-3.9
			C956.8,496.6,956.9,491,956.9,485.3z"/>
		<path class="st1" d="M396.7,506.7c-1.9,0-2.8,0.1-3.8,0c-11.3-1.1-12.1-2-12-13.3c0-7.3-0.2-14.6,0.2-21.9
			c0.1-1.9,1.6-4.8,3.2-5.3c3.6-1.2,7.7-1.4,11.5-1.8c0.3,0,1,1.3,1,2.1C396.7,479.6,396.7,492.8,396.7,506.7z"/>
		<path class="st1" d="M330.7,485.8c0,5.7-0.1,11.3,0,17c0.1,3.4-1.3,4.5-4.5,3.8c-1.3-0.3-2.6-0.3-4-0.6c-6.6-1.2-7.6-2.4-7.6-9.2
			c0-8.3-0.2-16.7,0.2-25c0.1-2,1.6-5.2,3.2-5.8c3.6-1.3,7.6-1.4,11.5-1.7c0.3,0,1.1,2.5,1.1,3.9C330.7,474.1,330.7,480,330.7,485.8
			z"/>
		<path class="st1" d="M789.6,478.1c2.3,0.2,4.2,0.3,6.2,0.5c4.6,0.6,7.3,2.5,6.6,7.8c-0.4,2.8-0.1,5.7-0.1,8.5
			c0,9.2-2.6,11.7-12.7,11.6C789.6,497.1,789.6,487.8,789.6,478.1z"/>
		<path class="st1" d="M893.2,506.3c0-8.8,0-17.2,0-25.7c0-0.7,0.6-2.1,0.8-2.1c3.4,0.4,6.9,0.5,10.1,1.6c1.2,0.4,2.1,3,2.3,4.7
			c0.4,3.5,0.1,7,0.1,10.5C906.6,503.8,903,507,893.2,506.3z"/>
		<path class="st1" d="M492.4,483.7c-4,0-7.7,0-12.2,0c0-5.8-0.1-11.4,0.1-16.9c0-0.9,0.9-2.2,1.7-2.6c5.8-2.8,10.9,0.4,10.8,6.6
			c0,3.6,0,7.3-0.1,10.9C492.8,482.2,492.7,482.7,492.4,483.7z"/>
		<path class="st1" d="M1100.9,484c0-6.2-0.3-11.8,0.1-17.4c0.3-4,3.9-2.9,6.3-2.8c2.6,0.1,6.2-0.7,6.4,3.6c0.2,4.5,0.2,9-0.1,13.4
			c-0.1,1.1-1.7,2.8-2.8,3C1107.8,484.2,1104.6,484,1100.9,484z"/>
		<path class="st2" d="M-180.4,627.9"/>
	</g>
</g>
</svg>
