<?xml version="1.0" encoding="utf-8"?>
<!-- Generator: Adobe Illustrator 23.0.0, SVG Export Plug-In . SVG Version: 6.00 Build 0)  -->
<svg version="1.1" id="Layer_1" xmlns="http://www.w3.org/2000/svg" xmlns:xlink="http://www.w3.org/1999/xlink" x="0px" y="0px"
	 viewBox="0 0 1475.6 476" style="enable-background:new 0 0 1475.6 476;" xml:space="preserve">
<style type="text/css">
	.st0{fill:#C7C8CA;}
	.st1{fill:none;}
	.st2{fill:#FFFFFF;}
</style>
<g>
	<g>
		<g>
			<path class="st0" d="M354.9,132.7c1,2.6,1.7,5.1,2.6,8.2c-4.5-2.6-6.3-6.3-7.6-10.7c-1.3-4.2-0.7-8.5-1.1-12.8
				c-2.3-1.1-2.6,1.5-4.3,2c-0.5-0.4-1.2-0.9-2.2-1.7c0-2.6,0-5.5,0-9.4c-0.8,1.8-1.2,2.5-1.5,3.2c-0.8,0-1.5,0-2.6,0
				c-0.5-3.5,0-7.1-0.3-10.4c-1.3-0.8-2.3-1.4-3.3-2.2c0-2.1,0-4.1,0-6.4c-1.5,0.4-2.8,0.7-4.1,1c-0.3-2.7,1-4.6,2.8-6.4
				c2-2,4.2-3.8,4.8-6.8c-0.8-0.6-1.7-1.3-2.9-2.2c3.5-1.7,6.6-3.1,9.5-4.4c-0.6-1.7-1-3-1.4-4.1c1.6-2.2,5.3-1.6,5.7-5.2
				c-1.2-0.2-2.4-0.5-4-0.8c0.8-0.8,1.1-1.6,1.6-1.7c2.5-0.7,3.1-2.9,3.3-4.8c0.3-3.3,1.4-5.5,4.4-7c1.7-0.8,2.9-2.8,4.3-4.3
				c-0.8-0.4-1.5-0.7-2.5-1.2c0.5-0.8,0.9-1.7,1.5-2.2c4.6-3.7,9-7.9,14.1-10.8c4.8-2.8,9.9-5.5,15.8-5.2c2.1,0.1,4-0.5,6.1-0.9
				c3.7-0.8,7.6,0.2,11.1,1.9c0.6,0.3,1.4,0.2,2.3,0.2c2.6,2,4.3,5.1,7.1,7.2c1.2,1,1.8,2.9,2.8,4.6c2.3,0.8,4,2.5,3.9,5.5
				c2.5,1.1,4.4-0.1,6.1-1.2c3.2-2,6.8-2.9,9.7-4.3c3.1,1.1,2.4,3.3,2.6,5.2c1.2,1.2,2.4,2.4,3.2,3.3c1.7,0.6,3,1.2,4,1.6
				c-0.6,1-1.1,1.7-1.7,2.6c-0.8-0.6-1.4-1-2-1.4c-0.2,0.4-0.4,0.8-0.6,1.5c3.8,1.8,7.6,3.7,9.6,7.8c0.8,1.7-0.5,3.9,1.3,5.6
				c-0.7,0.8-1.5,1.7-2.7,3.1c1.1,0.4,1.8,0.7,2.9,1.2c-0.2,2.2-0.3,4.6-0.5,7.4c0.1,0.1,0.8,0.8,1.6,1.6c-1.2,0.7-2.3,1.5-3.3,2.2
				c0,0.2-0.1,0.4,0,0.5c1.4,1.7,2.8,3.3,4.3,5.2c0,0.4,0,1.1,0,2.1c-0.5,0.2-1.1,0.4-1.9,0.7c0.7,1.2,1.5,2.3,2.5,3.9
				c-1.8,0-3,0-4.1,0c-1,1.1-1.8,2.1-3,3.4c0.6,0.4,1.2,1,2,1.5c2.7,1.5,5.2,3.1,8.1,4.2c2.5,0.9,4.7,1.4,5.8,4.4
				c0.5,1.4,2.2,2.4,3.4,3.6c0.6,1.9,1.1,3.9,1.8,6.3c3.1,3.2,6.4,6.7,7.5,11.9c0.3,1.7,2.8,2,3.8,3.7c0.8,1.1,3.4,1.1,5.3,1.2
				c4.9,0.1,9.7,0,14.7,0.1c3,0.1,5.8,0.8,8.1,3.3c1.9,0,3.9-0.2,5.8,0.1c1.6,0.3,3.1,1.2,4.7,1.8c0.3,0.1,0.7,0.4,1,0.3
				c4.4-0.6,8.6,1.4,12.7,2.4c2.6,0.6,5.1,0.8,7.5,0.9c1.7,2.6,1.7,2.6,0.3,9.2c-3,2.6-5.5,4.9-8.6,7.6c-1.3-0.3-3-0.7-5-1.2
				c-2,3-5.9,3-9.7,5.1c3.3,0.5,6.1,0.2,8.8,0.4c2.4,2.4,6.6,1.6,8.3,5.4c-0.2,0.8-0.5,1.8-0.8,2.6c0.3,1.5,0.6,3,0.8,4.4
				c-2.1,1.9-3.3,4.6-6.4,4.3c-1.8,1.7-1.9,4.9-5.4,4.5c-0.9-0.1-2.1,1.9-2.7,2.6c-3.3,0.6-6.3,1.6-9.1,1.4c-3-0.2-5.7,1.8-8.8,1.2
				c-0.7-0.7-1.3-1.3-2-2c-4-0.5-8.2-1-12.7-1.5c0.6,2.4,1,4.2,1.5,6.1c-1.4,1.2-2.6,2.2-3.5,3c0,1.3,0,2,0,2.8
				c-1,1-2.1,2.1-3.1,3.2c0,1,0,2.1,0,3.2c-1.2,1.3-2.1,3-4,3.2c-0.7,1.4-1,3.2-2,4.1c-3.5,3-5.4,7.4-8.3,11
				c-2.3,2.9-3.7,6.5-5.2,9.9c-0.6,1.3-1,2.1-2.4,2.5c-2.5,0.7-4,2.6-5.9,4.3c-1.8,1.7-3,4.1-5.7,4.7c-0.7,2.7-3,4-4.6,5.8
				c-1.7,1.9-3.5,3.7-5.4,5.5c-0.6,1.8,0.1,3.7-1,5.7c-0.8,1.4,0,4.2,0.9,6c1.3,2.4,0.8,4.9,0.9,6.2c1.5,3,2.4,5,3.4,7
				c-1.4,2.2-2,4.5-0.4,6.3c-1,6.4-2,12.4-3,18.7c-4.4,4.1-8.1,9.5-14.5,11.8c0.2,0.3,0.4,0.6,0.6,0.9c1-0.4,2-1,3-1.1
				c1.3-0.2,2.6,0,3.7,0c0.8,0.8,1.6,1.6,2.8,2.8c-0.3,2,0.8,4.5-1,6.7c0.6,0.7,1.3,1.3,2,2c1.2,3.3-1.8,3.7-3.6,4.9
				c-0.4-0.2-0.9-0.5-1.8-1.1c-0.8,0.9-1.7,1.9-3,3.5c0.6-0.2,0.3,0,0,0c-1.7-0.2-3.3-0.2-5.1-0.8c-2.3-0.8-4.9,0.8-7.6,1.1
				c-3.6,0.4-3.5,0.8-6.5-0.4c-3.9,1.9-8.1,4.3-12.8,3.3c-0.7,0.7-1.2,1.2-1.8,1.8c1.3,1.3,2.6,2.5,3.9,3.8c3.9-0.4,5,5,8.8,4.5
				c0.4,1,0.8,1.8,1.2,2.8c-0.7,1.3-1.5,2.6,0.2,4.4c1.3,1.3,1.9,3.2,2.9,4.9c-3,3.3-6.8,5-8.3,9.1c-2.5-0.7-4.9,0.9-6.9-1.3
				c-1.6,2-3.6,0.7-5.4,1.1c-0.7-0.7-1.4-1.4-2.1-2.1c-1,0-2,0-2.5,0c-3.1-1.8-5.7-3.4-8.6-5c-1.7-2.4-3.6-5.1-5.5-7.8
				c-1-5.1-2.1-10.4-3.1-15.9c-0.2,0.2,0.2,0,0.3-0.3c0.2-1.2,0.3-2.5,0.4-3.5c-0.8-0.8-1.5-1.5-2.2-2.2c0-1.7,0-3.6,0-5.7
				c-1.1-0.9-2.4-1.9-3.3-2.7c0-2.4,0-4.2,0-6.2c1.2-1.5,2.3-3.1,3.5-4.5c1.4-1.5,2.9-2.7,4.4-4.2c-1.4-2.8-3.8-4.2-5.5-6.6
				c-0.8-3.7-1.3-7.7-1.5-11.8c-0.2-3.7-1.6-7.3-2.5-11.4c-4.5,2.6-8.7,4.9-12.7,7.2c-1.9-0.7-2.5-2.1-2.1-4.2c-2.4,0-4.6,0-7,0
				c-0.7-0.7-1.3-1.3-1.8-1.8c0-1.7,0.1-1.8,3.5-3.5c-0.5-1.9-1-3.9-1.5-6c-3.6,0-7,0-10.4,0c0-0.2-0.1-0.4-0.1-0.7
				c0.9-0.2,1.9-0.3,2.7-0.7c1.1-0.5,2-1.4,3-1.9c0.9-0.4,2-0.5,3-0.8c1.1-0.4,2.3-0.8,3.1-1.5c0.9-0.6,1.6-1.6,1.9-3.2
				c-1.2,0.4-2.4,0.7-3.7,1.1c-0.4-0.5-0.9-1.1-1.4-1.7c0.6-1.1,1.2-2.3,1.9-3.6c-0.2-0.2-0.3-0.3-0.5-0.5c-1.2,0.8-2.5,1.6-3.6,2.4
				c-2-0.5-2.5-1.8-2.2-3.5c1.9-1.9,3.6-3.7,5.6-5.7c0-2.9,0-5.7,0-8.8c3.4,0.7,3.3,3.6,4.6,5.6c0.8,0,1.7,0,2.7,0c0-2.1,0-4,0-6.1
				c-0.9-0.9-2-2-3.2-3.3c0.9-0.6,1.7-1.2,2.3-1.6c0-4.5,0-8.6,0-12.7c1.6-2.5,3.1-4.9,4.5-7.2c1.4,0.1,2.2,0.1,3.4,0.2
				c-1.7,4.4-4.9,8-3.3,12.7c1.1-0.1,1.7-0.7,2-2.1c0.2-0.9,1.3-1.6,2.1-2.5c0-1.4,0-2.9,0-3.2c1.2-3,2-5.1,2.9-7.4
				c0.9,0.4,1.8,0.9,3,1.5c2.3-2.1,3.1-6,6.9-7c0.2,1.2,0.4,2.2,0.6,3.4c3.8-1.9,8.1-3.4,11.5-5.9c3.6-2.6,6.6-6.2,8.9-10.4
				c0,2.1,0,4.2,0,6.3c0.7,0.1,1.3,0.4,1.4,0.2c1.1-1.3,2-2.7,2-4.5c-0.1-3.7,0-7.4,0-11.1c0-1.5,0.3-3.1-0.1-4.4
				c-0.4-1.4,1.7-2.1,0.4-3.7c-0.7-0.9-0.3-2.8-0.2-4.3c0.1-1.3,0.5-2.7,0.9-4.7c-0.4-0.4-1.2-1.3-1.9-2.1c0.4-2.3,0.8-4.6,1.1-6.1
				c-1-1.9-1.7-3.1-2.6-4.7c0.7-0.8,1.5-1.7,2.4-2.7c0-1.8,0-3.6,0-5.5c-1-1-2.1-2-3.3-3.3c4.7-3.6,0.4-8.1,1.1-12.2
				c-2.1-1.6-4.1-3.2-6.1-4.8c-1.4,2.8-2.8,5.7-4.1,8.6c-0.4,0-0.8,0-1.5,0c-0.1-1.8-0.3-3.7-0.5-5.9c-4.1,1.5-4.6,5.2-6,8.8
				c-1.3-1.7-2.1-2.9-3-4c-0.8,1.2-1.5,2.3-2.9,4.3c0-2.9,0-4.7,0-6.7c-1.8,1.5-3.2,2.7-5,4.2c-0.3-1.7-0.4-2.7-0.8-4.6
				c-0.6,1.3-0.8,2-1.2,3c-1.3-1.7-2.4-3.3-3.5-4.8C355.6,132.5,355.4,132.6,354.9,132.7c0,0,0.4-0.1,0.7-0.1
				c-0.1-0.7-0.3-1.4-0.4-2.2c-0.2,0-0.5,0.1-0.7,0.1C354.5,131.3,354.6,132,354.9,132.7z"/>
		</g>
		<path d="M969.8,223.4c-0.5,10.3-6.9,17-14.7,22.5c-8.9,6.3-19,9.3-30.1,8.6c-11.1-0.7-19.8-5.8-27.1-14.3
			c-3.2,17.5,4.8,42.3,31.5,40.9c17.1-0.9,30.1-8.9,41.2-21.1c1-1.1,1.9-2.3,3-3.3c0.2-0.2,0.6-0.2,2.6-0.7c-2.3,3.8-3.4,7-5.6,9.3
			c-15.3,16.5-33.2,26.7-56.6,22.5c-14.9-2.6-26-15.5-27.3-31c-1-10.7,0-21.1,2.2-31.6c0.9-4.3-1-9.1-1.2-13.7
			c-1.5-28.2,11.1-48.4,34.7-62c16.7-9.6,34.9-14.1,53.3-7.3c11.6,4.3,23.1,4.6,34.8,6.2c12.9,1.7,24.2,6.7,33.1,16.4
			c2.1,2.2,3.6,2.7,6.3,1.1c2-1.2,4.4-1.5,6.7-2.2c0.3,0.6,0.6,1.3,0.8,1.9c-2,1.2-3.8,2.6-5.9,3.5c-2.7,1.1-3,2.4-1.6,4.9
			c8.5,14.4,10.3,30.4,9.8,46.7c-0.6,22.6-5.8,44.4-13.1,65.7c-0.3,0.8-0.5,1.6-0.6,2.4c-0.1,0.6,0.1,1.3,0.2,2.1
			c1.5,0.4,3,0.5,4.3,1.1c4.2,1.9,6.2,0,8.5-3.7c19.4-32.4,38.1-65.4,62.4-94.5c10.2-12.3,21.2-23.8,34.8-32.5
			c7.2-4.6,14.8-8.3,23.5-9.1c12.4-1.1,20.7,6.2,21.1,19c0.1,1.9,0,3.9,0,5.8c-0.5,0.1-1,0.2-1.5,0.4c-0.5-1.2-1.2-2.3-1.5-3.5
			c-2.4-10.8-9.6-15.3-20.3-12.6c-9.6,2.4-18.1,7.4-25.8,13.7c-22,18.2-38.7,41.2-54.8,64.6c-11.4,16.6-22,33.6-33,50.5
			c-1,1.5-1.8,3.1-3,5.2c4.1,2.4,8.2,4.6,12,6.9c14.5,9,19.7,23.7,14.1,39.9c-0.1,0.4-0.6,0.7-2,2.3c0-2.4-0.3-3.7,0-4.8
			c5.8-21.1-7.1-33.7-23.1-40.8c-3.9-1.7-4.7,1.9-6.2,3.9c-7.1,9.5-14,19.2-21.3,28.5c-2.5,3.2-6.1,5.4-9.2,8.1
			c-0.6-0.4-1.2-0.9-1.9-1.3c0.8-2.9,1.5-5.9,2.4-8.7c3.5-11.2,7.2-22.3,10.5-33.6c0.3-1.1-1-3.8-1.4-3.7c-2.8,0.1-6.4-2.8-8.2,1.5
			c-1.8,4.1-3.1,8.3-4.7,12.5c-8.9,22.9-23.4,41.4-43.6,54.8c-13.9,9.2-29.5,14.5-46.6,11c-7.6-1.6-14.2-4.7-18.2-12.1
			c-0.7-1.4-3.4-2.1-5.3-2.2c-8.8-0.7-17.7-0.6-25.5-5.9c-4.5-3.1-6.9-7.7-5.4-12.2c0.7-1.9,2.7-3.3,4.7-5.7
			c0.2,4.6-0.6,8.3,0.8,10.3c1.9,2.8,5.3,5.4,8.5,6.2c6,1.6,12.4,2,18.4,2.9c3.4-29.7,21.7-44.6,45.5-54.6
			c5.3-2.2,10.6-4.4,16.2-5.6c4.2-0.9,6.5-3.3,8.1-6.9c4.8-11.1,9.1-22.3,14.4-33.2c8.5-17.9,17.3-35.5,26.1-53.2
			c1.6-3.2,2.1-6,0.8-9.4c-5.6-14.7-14-27.2-26.9-36.2c-1.5-1-3.6-1.3-5.5-1.4c-17-1.1-31.8,5.2-45.4,14.6
			c-17.7,12.3-32,27.8-40.2,48.3c-1.6,3.8-2.6,7.9-4.1,11.7c-2.3,5.3,0.9,9,3.6,12.5c11.1,14.1,26.6,15.4,41.6,9.3
			c9-3.6,17-9.2,21.2-18.7c1.1-2.4,1.8-5.1,2.7-7.6C968.6,222.8,969.2,223.1,969.8,223.4z M1022.7,291.2
			c-10.1-1.3-19.7-0.3-29.1,1.4c-1.3,0.2-2.4,2.1-3.2,3.4c-5.7,8.5-10.8,17.4-16.9,25.5c-11.2,14.7-25.4,25.7-43,31.4
			c-3.9,1.3-8,2.1-12.2,3.3c3.3,7.7,8.9,11.8,16.2,13.1c11.6,1.9,22.7-0.2,33.3-5.5c16.4-8.2,29.2-20.4,38.9-36
			C1013.8,316.6,1019.4,304.8,1022.7,291.2z M893.6,211.5c20.3-34.4,49.2-55.7,87.4-63.6c-11.6-11.2-44.7-6.5-65.4,8.7
			C897.2,170,889.8,200.4,893.6,211.5z M1026.7,210.1c-0.7-0.1-1.4-0.2-2.1-0.3c-9.8,26-19.7,52-29.5,77.9c9.8,0,19.4,0,28.9,0
			C1030.6,261.5,1029.7,235.8,1026.7,210.1z M915.4,351.3c25.7-3.9,49.2-33.3,57.7-54c-0.5-0.1-1-0.4-1.4-0.3
			c-22.6,5.5-41.6,16.3-52.2,38.5C917.4,340,916.9,345.4,915.4,351.3z M1038.3,288.8c7.5-35,13.3-69.4-0.4-103.9
			c-3,4.3-5.5,8.7-7.8,13.3c-0.4,0.7-0.1,1.9,0.1,2.8c1.3,5.8,3,11.5,3.7,17.4c2.2,20.3,0.9,40.4-4,60.3c-0.8,3-1,6.1-1.5,9.6
			C1031.8,288.4,1034.7,288.6,1038.3,288.8z M1026.3,188.8c2.7-3.5,4.8-5.9,6.4-8.7c0.7-1.3,0.9-3.8,0.1-4.8
			c-3.8-4.6-7.7-9.5-12.4-13.2c-5.3-4.2-11.4-7.2-19.8-7.6C1012.7,163.7,1020.6,174.8,1026.3,188.8z M1054.5,296.1
			c-1.6-0.5-2.6-0.7-3.4-1.1c-4.6-2.1-7.1-0.4-8.7,4.4c-2.2,6.7-4.7,13.4-7.4,20c-1.7,4.3-3.7,8.4-5.6,12.5c0.5,0.2,0.9,0.5,1.4,0.7
			C1040.4,321.9,1047.1,309.1,1054.5,296.1z"/>
		<path d="M170.7,189.5c-1.3-1.9-2.6-3.6-3.6-5.6c-6.9-12-18-17.8-30.8-21c-1.1-0.3-2.8,0.7-3.6,1.5c-11.1,10.2-10,25-1.9,35.9
			c4.7,6.2,10.8,11.3,16.6,16.6c0.9,0.8,3.1,0.4,4.6-0.1c7.5-2.2,14.7-5.8,22.3-6.8c11.3-1.5,19.5,6.2,21.5,17.7
			c1.6,8.6,0.4,16.6-3.1,24.3c-1.4,3-0.8,5.1,0.4,7.9c3,7.3,6.7,14.6,8.1,22.2c2.6,15.1-4.9,27-14.8,37.3
			c-15.2,15.8-34.4,24.2-55.3,29.2c-15.1,3.6-30.4,6.7-46,5.5c-1.4,13.2,7.3,29.9,23.9,34.7c9.7,2.8,19,0.1,27.5-5.3
			c8.5-5.3,14.7-12.3,17.2-22.5c0.5,0.1,1,0.2,1.5,0.2c0,1.2,0.3,2.6,0,3.7c-3.8,12.8-13.1,20.3-24.7,25c-4.6,1.9-9.7,2.7-14.8,3.3
			c-19.2,2.3-30.3-7.6-35.8-25c-1-3.1-1.7-6.5-1.8-9.8c-0.1-4.6-2.5-6.2-6.5-6.9c-8.5-1.5-15.7-5.3-21.9-11.3
			c-9.1-9-10.2-19.8-7.4-31.7c1.8-7.4,4.9-14.1,10.2-19.5c2.3-2.4,1-3.4-0.7-5.2c-14-14.9-20-32.8-17-53
			c3.2-21.9,13.9-39.9,31.1-53.6c15.7-12.5,33.7-18.7,53.6-18.8c5.1,0,8.9-1.8,13.1-4.4c19.6-12,40.4-15.2,62.2-7.8
			c6.4,2.2,11.7,7.5,18,11.7c5.9-4,10-12.6,18.8-14.1c0.3,0.4,0.7,0.8,1,1.2c-1.2,1.2-2.3,2.5-3.5,3.6c-2.1,1.8-4.2,3.6-6.5,5.3
			c-5.9,4.4-8.3,8.8-5.3,17c4.3,11.9-8,26.7-20.3,26.4c-4.1-0.1-6-2.2-6.3-6.1c-0.5-5.9,2.3-10.6,5.5-15.1c2.2-2.9,4.4-5.9,7.2-8.1
			c4.1-3.2,2.8-6.1,0.3-9.2c-4.6-5.8-11-9.1-18-10.3c-16.2-2.7-31.7-0.3-45.4,9.5c-0.7,0.5-1.2,1-2.4,2c15.8,4.5,28.7,12,34.6,27.8
			C171.8,188.6,171.2,189.1,170.7,189.5z M135.8,226.5c0.1,0.1-0.7-0.3-1.3-0.8c-8.1-6-15.5-12.5-20.6-21.5
			c-4.9-8.9-7.6-18.1-2.4-27.8c2.8-5.2,6.3-10,9.7-15.3c-1.6,0-3.1-0.1-4.7,0c-17.9,0.9-33.7,7.2-47.3,19.2
			C51.7,196,40,214.8,39.6,239.5c-0.2,17.4,5.1,32.5,17.4,45c10.5-8.7,22.2-14.7,35-18.6c7.4-2.2,14.7-3.7,19.8-11.7
			C118.3,244.3,127.4,236,135.8,226.5z M180.4,271.6c-1.3,1.3-2.3,2.1-3.1,3.1c-14.2,14.4-30.9,24-50.6,27.3
			c-10.9,1.8-22.1,1.7-33.2,2.1c-3.1,0.1-4.8,0.7-5.3,4.1c-1.6,10.8-3.5,21.6-5,32.4c-0.9,6.1-0.3,6.4,5.8,7
			c15.3,1.5,29.9-1.6,44.4-6.4c17-5.7,32-14.3,42.6-29.2C184.4,299.7,186.5,286.3,180.4,271.6z M89.7,301.4
			c11.9,1.3,22,0.5,32.2-1.5c21.1-4.1,38.7-14.5,53.5-30c2.8-2.9,2.7-4.9,0.4-8.1c-9.4-12.7-21.8-22.1-34.3-31.3
			c-1.1-0.8-3.9-0.4-5,0.5c-4.7,4-9.2,8.2-13.5,12.8c-4.5,5-8.5,10.5-13.2,16.4c8.5,0,15.6-0.1,22.8,0.1c1.5,0.1,2.9,1.6,4.3,2.5
			c-0.2,0.6-0.5,1.1-0.7,1.7c-7.2,0-14.3,0-21.4,0c-5.7,0-9.9,2.3-12.1,7.9c-0.7,1.8-1.9,3.5-2.8,5.3
			C96.8,285.3,93.5,292.8,89.7,301.4z M75.8,344.7c2.8-14.2,5.5-27.9,8.1-40.8c-8.3-3.9-16.5-7.7-25.2-11.8
			c-6.6,9.3-10.3,19.7-6.2,31.6C56.5,335.2,65.1,341.6,75.8,344.7z M187.7,250.7c0.7-1.4,1.6-2.6,2-3.9c2.7-8.3,4.7-16.9,0.3-25.2
			c-7.5-13.9-26.2-10-37.2-0.9C164.3,230.6,175.9,240.5,187.7,250.7z M101.8,267.2c-15.6,3.4-29.6,9-40.2,21.8
			c6.5,5.5,13.4,9.2,21.1,10.7c1.4,0.3,3.8-0.6,4.3-1.6C92,288,96.7,277.9,101.8,267.2z M209,170.3c-0.6-0.3-1.2-0.5-1.8-0.8
			c-3.2,6-6.7,11.8-9.5,18c-0.8,1.7,0.3,4.3,0.5,6.5c2.2-0.8,4.9-1,6.4-2.5C210.2,185.4,211.4,178.2,209,170.3z"/>
		<path d="M458.5,268.8c0-1.4-0.1-1.9,0-2.3c0.5-3.4,2.1-6.9-1.5-9.6c-3.8-3-8.1-3.2-12.5-1.4c-11.4,4.7-18.6,14.3-25.8,23.6
			c-7.9,10.1-15.5,20.5-19.7,33c-1.1,3.3-1.8,6.7-2.3,10.1c-0.2,1.4,0.5,4,1.4,4.3c1.4,0.5,3.7,0.1,4.9-0.8c4-3.4,8.1-6.8,11.3-10.9
			c8.1-10,15.6-20.3,23.5-30.5c0.8-1,1.8-2,2.8-2.8c2.7-2,4.8-1.5,5.2,2c0.4,3.3-0.1,6.6,0.1,9.9c0.4,8.3,0.2,16.7,1.8,24.8
			c1.8,9.7,8.1,12.2,16.9,7.9c7.8-3.8,12.8-9.4,14.2-18.7c2-13.2,4.5-26.2,3.8-39.7c-0.3-6.5,7.4-13.5,13.6-12.8
			c3.3,0.4,4.1,2.6,3.4,5.8c-3,14.8-5.9,29.6-8.9,44.4c-0.1,0.4,0.1,0.9,0.2,2.8c3.6-3.8,7-6.6,9.5-10
			c10.2-13.5,20.3-27.2,30.2-40.9c3.2-4.5,10.9-6.3,14.9-2.5c1.2,1.1,1.3,4.2,0.8,6.1c-4,15.7-8.7,31.3-12.4,47.1
			c-2,8.2-3.2,16.6-0.8,25.2c1.3,4.4,4,6.1,7.6,4.3c4.8-2.5,9.1-6.1,13.7-9.1c1.2-0.8,2.4-1.4,3.5-2.1c0.5,0.4,1.1,0.8,1.6,1.2
			c2.2-10.9,4.8-21.7,6.4-32.7c1.3-9,1.4-18.2,1.9-27.3c0.3-6.1,7.8-12.9,13.7-12.2c3,0.4,4.1,2.3,3.5,5.3
			c-3,14.6-5.9,29.2-8.9,43.9c-0.2,0.9,0,1.8,0,4.4c5.9-6.6,11.4-11.9,15.8-17.9c8.4-11,16.1-22.4,24.1-33.8
			c3-4.4,10.6-6.2,14.6-2.6c1.2,1.1,1.6,4.2,1,6.1c-3.4,13.1-7.9,26.1-10.8,39.3c-2.4,10.6-5.4,21.4-2.4,32.5c1.5,5.4,3.4,7,8.5,4.6
			c4.5-2.1,8.4-5.5,12.5-8.4c1.2-0.8,2.1-1.9,4.2-2.3c-0.6,1.7-0.8,3.6-1.7,5.1c-5.1,8.3-17,12.7-26.4,9.9
			c-7.9-2.4-12-10.9-11.4-21.9c0.9-14.2,4.1-27.9,8.1-41.5c0.5-1.7,0.9-3.5,1.6-6.5c-7.6,8.7-14.5,16.4-20.9,24.3
			c-6.7,8.1-13.4,16.3-19.4,24.9c-3,4.3-4.3,9.8-9.8,11.7c-1.9,0.6-4.1,0.1-6.5,0.1c-4.2,2.6-8.9,6.9-14.2,8.5
			c-16.4,4.9-24.8-4-24.5-20.2c0.2-14.6,3.9-28.6,8-42.5c0.5-1.8,0.9-3.7,1.4-5.6c-0.4-0.2-0.7-0.4-1.1-0.7
			c-13,16.3-26.1,32.6-39,49c-2.9,3.5-5.2,7.4-8.4,10.6c-1.2,1.2-3.8,0.9-5.8,1.2c-0.1-1.8-0.1-3.7-0.2-5.5c0-0.5-0.1-0.9-0.2-2.1
			c-4.3,2.4-8.3,4.9-12.4,7c-13.5,6.8-24.5,1-27-14.1c-0.9-5-1.6-10.1-2.6-16.6c-2.9,4.2-4.8,7.6-7.2,10.5
			c-5.6,6.6-11.1,13.3-17.2,19.4c-4.4,4.4-10.2,5.7-15.8,2.5c-6-3.5-6.3-9.8-5.8-15.9c1.9-23.6,14.5-41.4,30.5-57.2
			c7.5-7.4,16-13.5,26.8-13.6c5,0,10.2,1.7,14.9,3.6c5,2.1,7.1,10.4,4.3,15.2C461.5,266.7,460.1,267.4,458.5,268.8z"/>
		<path d="M767.7,285c-7.8,9.8-15.5,19.5-23.1,29.4c-1,1.3-1.2,3.4-1.6,5.1c-1.5,6.1-3.8,11.6-10.6,14.7c-0.8-2.7-1.5-5.1-2.3-7.8
			c-3,1.6-6.1,3.2-9,4.7c-14.9,7.6-24.9,1.4-27.9-14.3c-1-5.2-1.2-10.5-1.9-17.3c-2.3,3.2-3.9,5.7-5.6,8.1c-6,8.9-11.7,18-20.9,24
			c-9.5,6.2-19.2,1.5-20-9.9c-0.9-13.6,4.4-25.3,10.9-36.7c6.7-11.8,15.1-22.1,26-30.2c10.4-7.8,21.9-11.8,34.7-5.2
			c4.1,2.1,6.1,5.7,6.3,10.4c0.1,3.9-1.2,6.7-4.8,8.2c-0.3-0.5-0.7-0.8-0.7-1c1.4-3.4,3-6.9-0.4-10c-3.9-3.6-8.9-4.6-13.2-1.8
			c-7.3,4.9-15,9.8-20.4,16.6c-8.8,11-16,23.3-23.4,35.4c-2.4,3.8-3.3,8.7-4.2,13.2c-0.4,1.9,0.4,4.9,1.8,6c1,0.8,4.3-0.1,5.6-1.3
			c5.4-5.2,10.8-10.5,15.5-16.4c6-7.4,11.1-15.6,17-23.1c1.9-2.4,5-3.8,7.5-5.6c0.9,3,2.3,5.9,2.4,9c0.4,8.1,0,16.3,0.4,24.4
			c0.3,5.7,1.7,11.5,7.9,13.6c4.5,1.6,14.7-2.7,17.6-6.9c0.5-0.8,0.8-1.8,0.9-2.7c3.5-18.7,7.1-37.5,10.6-56.2
			c0.1-0.3-0.2-0.6-0.3-1.2c-7.4-0.3-9.1,6.1-12.4,12.1c-1.8-5.6-0.6-9.1,2.5-12c1.7-1.6,3.4-3.4,5.5-4c6.6-1.8,9-6.7,11.1-12.8
			c8.9-26.1,21.4-50.2,38.7-71.5c11.4-13.9,24.5-26,41.4-32.4c15.4-5.8,31-6.4,45.4,3.9c16.9,12.2,18,38.2,3.6,53.6
			c-9.9,10.7-21.9,18.3-34.8,24.3c-17.9,8.4-36.1,15.9-54.4,23.2c-9.5,3.8-19.5,6.4-29.4,9.3c-3.5,1-5.5,2.9-6.3,6.6
			c-3,14.8-6.2,29.6-9.2,44.3c-0.2,0.9,0,1.8,0,4c7.1-9.3,13.5-17.6,19.6-26.1c3.7-5.2,6.8-10.8,10.3-16.2c1.5-2.2,3.1-4.3,5.2-5.9
			c1.3-1,3.3-1.5,4.8-1.1c0.7,0.2,1.3,2.9,1.2,4.3c-1,8.3-2.8,16.5-3.1,24.8c-0.4,9.6-0.4,19.3,0.8,28.8c0.8,6.8,4.9,8.9,10.5,5.4
			c6.8-4.3,12.6-10.3,18.6-15.8c2.9-2.6,5.1-5.9,8.6-10c0.1,2.3,0.6,3.4,0.2,4.1c-8.3,12.8-18.1,24.1-31.7,31.1
			c-8.6,4.4-15.9,0.7-18.9-8.4c-3.6-11.2-2.9-22.7-2-34.2c0.1-1.6,0.4-3.2,0.6-4.8C768.6,285.3,768.2,285.2,767.7,285z M758.1,250
			c5.7-2.1,11.5-4.1,17.2-6.2c25.9-9.7,50.8-21.4,74.7-35.4c10.9-6.4,21.3-13.4,29.3-23.7c6.2-8,7-17.8,1.7-26.4
			c-5.8-9.5-15.3-12.3-25.3-12.5c-28.3-0.5-50.6,11.6-67.8,34.4C772.6,200.8,766,225.3,758.1,250z"/>
		<path d="M1230.4,269c0-1.4,0.1-1.9,0-2.4c-0.4-3.2,0.2-7.4-1.6-9.5c-3.2-3.7-8.1-3.3-12.7-1.4c-8.2,3.3-14.3,9.4-19.7,15.9
			c-10.2,12.2-20,24.9-25.7,40.1c-1.2,3.2-2,6.7-2.3,10.1c-0.2,1.7,0.7,4.8,1.7,5.1c1.8,0.4,4.4-0.2,5.8-1.4
			c4.8-4.4,9.7-8.9,13.8-14.1c6.5-8.1,12.2-16.7,18.4-25.1c1.2-1.6,2.6-3.1,4-4.4c3.2-2.8,5.5-2.1,6,2.2c0.4,3.1-0.2,6.3-0.1,9.4
			c0.4,8.1,0.1,16.4,1.7,24.3c2,10.4,9,13.2,17.9,7.4c6-3.9,11.2-9,16.7-13.6c1-0.8,2-1.6,3-2.4c0.3,0.3,0.6,0.5,1,0.8
			c-0.4,1-0.5,2.1-1.1,2.9c-7.3,9.1-16.3,15.8-26.9,20.1c-10.5,4.3-19.8-0.2-22.9-11.6c-1.8-6.5-2.4-13.4-3.6-21
			c-3.6,5.3-6.8,10.6-10.6,15.3c-4.2,5.2-8.8,10.2-13.7,14.7c-5.9,5.3-12.5,6.3-19.1,0.3c-5.9,8.5-13.1,14.8-22.5,18.6
			c-12.9,5.1-27-2.1-30.6-15.9c-2.7-10.4-2.1-20.8-0.9-31.3c2.5-23.2,8.2-45.8,15.2-67.9c5-15.6,12.1-30.1,24.3-41.4
			c4.6-4.3,10.1-6.5,16.4-6.9c1.3-0.1,2.6,0.5,3.8,0.8c0,0.5,0.1,1,0.1,1.5c-1.3,0.7-2.6,1.7-3.9,1.9c-6.5,0.9-10.3,5.4-13.6,10.4
			c-8.6,12.8-13.8,27.2-16.9,42.1c-4.5,21.9-8.2,44.1-11.6,66.2c-1.6,9.9-1,20,3.6,29.2c3.3,6.7,9.9,8.7,16.6,5.6
			c7.2-3.4,12.6-8.8,16.7-15.6c0.9-1.4,0.9-3.5,0.8-5.2c-1.1-12.8,3.1-24.1,9.1-35c6.8-12.4,15.3-23.3,26.5-32
			c10.6-8.3,22.1-12.6,35.4-6.1c5.4,2.7,8.2,10.3,5.2,15.7C1233.6,266.6,1232.1,267.5,1230.4,269z"/>
		<path d="M1299.1,279.7c-3,4.8-5.8,9.8-9,14.4c-5.3,7.8-10.8,15.3-16.2,23c-3.2,4.6-6.2,9.3-9.6,13.6c-1.3,1.6-3.6,2.3-5.4,3.4
			c-0.6-0.3-1.3-0.6-1.9-1c0.8-5.6,1.8-11.1,2.4-16.8c1-9.9,2.5-19.8,2.5-29.7c0-9.8-4.8-12.1-13.7-7.9c-0.9,0.4-1.8,0.9-3,1.5
			c-0.2-1-0.7-1.9-0.4-2.5c3-6.3,14.2-10.8,20.8-8.5c4.1,1.4,6.8,4.1,6.9,8.6c0.2,9.1,0.2,18.2,0.3,27.3c0,1.2,0,2.5,0,5.3
			c4.8-6.5,8.9-11.8,12.8-17.1c4.3-6,8.8-11.9,12.9-18.1c1.8-2.7,2.7-6,4.3-8.9c1.3-2.2,2.8-4.8,4.8-5.8c5.1-2.6,8.7,0.5,7.6,6.5
			c-2.4,12.6-4.7,25.1-7.6,37.5c-2.2,9.8-5,19.5-8.1,31c3.3-1.8,6.2-2.8,8.3-4.6c2-1.8,3.1-4.5,5.2-7.6c2,6.6-0.9,10.1-4.5,13
			c-1.9,1.5-4.2,3.2-6.5,3.4c-5.9,0.7-7.2,5.1-9,9.6c-13.8,33.2-31.6,63.6-59.7,86.5c-16.3,13.3-35.1,19.2-55.9,16.2
			c-11.6-1.7-21.8-10.7-26.1-23.7c-6.5-19.7,5.8-39.2,22.5-49c21.6-12.7,45-21,68.8-28.2c13.1-4,26.4-7.7,39.5-11.3
			c3.7-1,6-3.1,6.8-6.9c2.7-12.8,5.5-25.6,8.2-38.5c1-4.8,2-9.7,3-14.6C1299.7,280,1299.4,279.9,1299.1,279.7z M1285.5,346
			c-0.5-0.5-1.1-1.1-1.6-1.6c-5.5,1.5-11,2.8-16.3,4.6c-27.6,9.5-55,20.1-80.9,33.8c-11.3,5.9-21.9,12.8-29.4,23.9
			c-7.6,11.3-3.7,26.1,8.5,31.9c14.3,6.7,29.2,6.2,43.7,2.4c21.9-5.8,38.1-20.4,49.1-39.9C1268.5,383.2,1276.6,364.4,1285.5,346z"/>
		<path d="M375,272.9c-8.7,23.5-22.8,41.9-42.8,55.4c-4.5,3.1-10.4,4.8-15.9,5.5c-7.5,0.9-9.7-1.4-12.2-9c-4,2.3-7.9,4.7-12,6.7
			c-14,6.9-24.1,1.9-27.6-13.9c-1.2-5.3-1.3-10.9-2-17.7c-2.3,3.2-4.1,5.8-5.8,8.3c-5.9,8.7-11.6,17.6-20.7,23.5
			c-9.5,6.2-19.3,1.5-20-9.9c-0.8-13.7,4.5-25.6,11.1-37.1c6.6-11.4,14.8-21.4,25.3-29.4c10.8-8.2,22.4-12.4,35.5-5.4
			c3.7,2,6.3,5.2,5.7,9.6c-0.4,2.8-2.1,5.5-3.2,8.2c-0.2,0.4-1.1,0.4-0.6,0.2c-0.7-3.7-0.3-8.1-2.3-10.5c-3.4-4.2-8.6-3.7-13.5-1.5
			c-9.5,4.3-16.3,11.9-22.6,19.9c-9.4,12.1-18.9,24.2-23.2,39.4c-1.1,3.9-4.1,8.8,0.1,11.4c4.3,2.7,8.2-2,10.6-5
			c8.5-10,16.3-20.6,24.4-30.9c2.4-3,4.5-6.1,7.1-8.8c1-1,3-1.5,4.4-1.2c0.9,0.2,1.8,2.3,1.8,3.6c0.1,5-0.7,10-0.3,15
			c0.7,7.7,1.7,15.4,3.2,23c0.9,4.4,4.8,6.4,8.8,5.1c5.3-1.8,10.4-4.4,15-7.6c1.6-1.1,1.5-4.8,2.1-7.3c3.1-11.5,6.4-23,9.2-34.6
			c1.2-4.6,1-9-3.1-12.7c-3.1-2.8,1.2-11.8,5.9-12.8c0.3-0.1,0.7-0.1,1-0.1c11.4-1.3,14.6,2.8,11.7,14.1
			c-3.9,16.1-7.5,32.3-11.1,48.5c-0.3,1.1-0.4,2.3-0.5,3.5c-0.2,7.2,3.5,10,9.3,5.9c6.7-4.7,13-10.1,18.5-16.1
			c9.6-10.5,17.5-22.3,21.7-36.2c0.6-1.8,0.1-4.5-0.9-6.2c-3.4-5.7-5.7-11.6-5-18.4c0.4-3.2,1.8-6.5,5-6.3c2.4,0.1,5.9,2.4,6.6,4.5
			c1.6,4.7,2.2,10,2.3,15c0.2,6.1,2.9,9,9,8c1.5-0.2,2.8-1.1,4.1-1.4c1.3-0.2,2.6,0.1,3.8,0.2c-0.5,1.4-0.8,3.8-1.7,4.1
			c-3.5,1.2-7.4,2.1-11.1,2.5C378.8,274.3,376.9,273.3,375,272.9z"/>
		<path d="M987.6,432c-6.1-0.7-11.8-1.5-17.5-2c-1.4-0.1-2.8,0.5-4.1,0.9c-11.6,3.6-24.3-1.3-29.2-11.2c-5.3-10.8-2.8-23.7,6.4-30.5
			c6.8-5.1,14.4-6,22.4-4.1c1.3,0.3,2.6,0.6,3.7,0.9c0.1,0,0.3-0.1,1.1-0.2c0-5.1,0-10.3,0-15.8c5.9,0,11.3,0,17,0
			C987.6,390.2,987.6,410.4,987.6,432z M955.1,408.1c0,5.6-0.1,11.3,0.1,16.9c0,1.4,0.8,3.9,1.2,3.9c3.6-0.2,7.5-0.3,10.8-1.5
			c1.7-0.6,3.3-3.6,3.4-5.5c0.4-8.6-0.2-17.3,0.3-25.9c0.3-5.3-1.9-7.6-6.5-8.5c-1.6-0.3-3.2-0.6-4.8-0.9c-3-0.5-4.5,0.7-4.5,4.1
			C955.2,396.5,955.1,402.3,955.1,408.1z"/>
		<path d="M388.5,429.6c0,4.3,0,7.8,0,11.3c0,2.3-0.6,3.8-3.2,3.7c-4.2-0.1-8.5,0-13.2,0c0-19.9,0-39.4,0-60.1
			c5.5,0.5,11,1,16.6,1.4c1.4,0.1,2.9,0.1,4.1-0.3c10.4-3.1,19.9-1.6,27.3,6.9c5.9,6.6,6.6,19.1,2,28.3c-4.4,8.8-17,13.3-28.4,10.2
			C392.2,430.6,390.8,430.3,388.5,429.6z M404.1,429.5c0-13.8,0-27.1,0-40.4c0-0.7-0.7-2.1-1-2.1c-3.8,0.4-7.8,0.6-11.3,1.8
			c-1.5,0.5-3,3.4-3.1,5.3c-0.4,7.3-0.2,14.6-0.2,21.9c0,11.3,0.8,12.2,11.8,13.3C401.3,429.6,402.2,429.5,404.1,429.5z"/>
		<path d="M307,384.2c6,0.8,11.5,1.6,17.1,2.1c1.4,0.1,2.9-0.5,4.2-0.9c9.7-2.7,18.7-1.3,25.8,6.4c6.7,7.3,7.4,16.1,4.3,25.2
			c-3.9,11.7-16.9,17.7-29.9,14.1c-1.4-0.4-2.8-0.8-5.2-1.5c0,4.1-0.1,7.7,0,11.3c0.1,2.8-0.9,3.9-3.6,3.8c-4-0.2-8.2,0-12.7,0
			C307,424.7,307,405.2,307,384.2z M339.2,408.6c0-5.8,0.1-11.7-0.1-17.5c0-1.4-0.8-3.9-1.1-3.9c-3.8,0.3-7.8,0.4-11.3,1.7
			c-1.6,0.6-3,3.7-3.1,5.8c-0.4,8.3-0.2,16.6-0.2,25c0,6.8,1,8,7.5,9.2c1.3,0.2,2.7,0.3,3.9,0.6c3.1,0.7,4.5-0.4,4.4-3.8
			C339,419.9,339.2,414.3,339.2,408.6z"/>
		<path d="M641.6,431c-6.3,0-11.9,0-18.1,0c0-9.6,0-18.8,0-28.1c0-2,0-4,0-6c0-12.1,0-11.9,11.7-12.2c4.7-0.1,8,0.5,6.2,7.4
			c3-2.2,5-3.6,7-4.9c5.1-3.3,10.7-4,16.5-2.3c4.6,1.4,8,4.6,8.3,9.5c0.5,11.3,0.5,22.6,0.5,33.9c0,1-1.9,2.7-2.9,2.8
			c-4.7,0.3-9.4,0.1-14.9,0.1c0-4.3,0-8.2,0-12.1c0-8.5,0.1-17-0.1-25.5c0-1.7-0.6-4.4-1.5-4.7c-1.6-0.5-3.8,0.1-5.4,1
			c-4.7,2.8-7.7,6.6-7.3,12.9C642,412.2,641.6,421.5,641.6,431z"/>
		<path d="M259,384.9c0,9.5,0,18.3,0,27.1c0,4.2,0.1,8.3,0,12.5c-0.2,3.8,1.8,4.1,4.6,3.3c5.7-1.6,9.3-6.4,9.3-12.4
			c0-10,0-19.9,0-30.5c5.6,0,10.6-0.1,15.6,0.1c0.9,0,2.3,1.9,2.3,2.9c0.2,13.3,0.2,26.7,0,40c0,1.1-1.9,3.1-3,3.2
			c-4.7,0.4-9.4,0.2-14.4,0.2c-0.4-2.1-0.8-3.8-1-5c-5,1.9-9.6,4.5-14.6,5.5c-10.3,2-16.9-3.8-17-14.5c-0.1-9.3,0.1-18.7-0.1-28
			c-0.1-3.5,1.1-4.7,4.5-4.6C249.7,385.1,253.9,384.9,259,384.9z"/>
		<path d="M1439.3,261.1c-0.5-1.1-1.3-2.1-1.6-3.3c-0.9-3.7-3.3-4.8-6.7-4.2c-12.1,2.1-26.8,16.1-25.1,29.9
			c1.1,8.1,6.1,13.7,11.6,19.1c6.4,6.2,8.4,12.3,6.5,22c9-5,17.3-9.6,25.6-14.1c0.3,0.3,0.6,0.7,0.8,1c-3.2,2.6-6.4,5.5-9.8,7.8
			c-7.7,5.2-15.4,10.4-23.4,15.1c-3.8,2.3-8.2,4.3-12.6,5.2c-9.2,1.7-18.4,5.6-27.9,2.2c-1.9-0.7-4.7-2.7-4.7-4.1
			c0-1.9,2-4.2,3.6-5.7c1.2-1.1,3.2-1.4,5-1.6c10.1-1.1,20.2-1.8,30.3-3.1c2.7-0.3,6.1-1.4,7.4-3.4c2.3-3.6,2.3-8-1-11.5
			c-4.2-4.6-8.9-8.8-12.8-13.7c-3.2-4.1-6.2-8.6-8.3-13.3c-4.9-11.9-1.6-22.2,9-31.8c7-6.3,14.9-8.6,24-7.2
			c5.2,0.8,9.2,3.3,11.3,8.3c0.7,1.7,0.4,3.9,0.5,5.8C1440.7,260.8,1440,260.9,1439.3,261.1z"/>
		<path d="M734.8,414.6c1.6-0.2,3.2-0.6,4.8-0.7c14.5-0.3,24-12.7,20.3-26.9c-2.1-7.9-8.3-11.8-15.5-13.6
			c-13.9-3.5-14.9-2.6-14.9,11.6c0,15.1,0,30.3,0,45.8c-7.1,0-13.9,0-20.9,0c0-20.1,0-40.3,0-61.8c12.7,0.7,25.5,0.6,38,2.4
			c9.7,1.4,15.9,9.3,16.8,17.8c1.1,10.6-3.9,20.6-12.9,24.8c-3.3,1.6-7.2,2.3-10.8,2.9c-1.5,0.3-3.1-0.5-4.7-0.9
			C734.7,415.6,734.7,415.1,734.8,414.6z"/>
		<path d="M196.4,431.3c-6.6,0-12.3,0-18,0c-3.3,0-3-2.4-3-4.5c0-13.2,0-26.3,0-39.5c0-5.6,0-11.3,0-17.6c13.8,0.5,27.2-2,40.3,2.2
			c8.4,2.7,13.8,8.9,14.6,18.2c0.8,10.1-4.4,19.7-13,23.9c-4.8,2.3-9.9,4-15.2,2.4c-0.1-0.5-0.2-1-0.3-1.6c1.5-0.3,3-0.9,4.5-0.9
			c14.4-0.4,23.4-11.3,20.8-25.6c-1.7-8.9-8.2-12.8-15.9-14.9c-3.2-0.9-6.8-0.7-10.2-1.1c-3.4-0.4-4.5,1.1-4.5,4.5
			c0.1,16,0.1,32,0.1,47.9C196.4,426.7,196.4,428.6,196.4,431.3z"/>
		<path d="M820.8,432.2c-6.9-1-12.9-1.8-18.8-2.5c-1-0.1-2.2,0.7-3.2,0.8c-4.6,0.4-9.4,1.5-14,0.9c-9.2-1.3-14.3-7.8-14.1-16.8
			c0.2-8.1,6.2-14.7,14.9-15.7c5.4-0.6,10.9-0.1,17.1-0.1c0-2.3,0.3-5.6-0.2-8.8c-0.2-1.1-2-2.5-3.2-2.8c-6.1-1.4-12-0.4-17.5,2.7
			c-1.4,0.8-3,1.2-4.5,1.8c-0.3-0.6-0.6-1.1-0.9-1.7c1.8-1.1,3.3-2.7,5.2-3.4c8.9-3.1,18-3.5,27-0.7c7.8,2.4,11.9,7.9,12,16.3
			C821,411.7,820.8,421.2,820.8,432.2z M790.5,400.9c0,9.7,0,19.1,0,28.4c9.9,0.1,12.5-2.4,12.5-11.6c0-2.8-0.3-5.7,0.1-8.5
			c0.7-5.3-2-7.3-6.5-7.8C794.7,401.1,792.8,401,790.5,400.9z"/>
		<path d="M905.6,398.7c0-2.1,0.3-5.5-0.2-8.7c-0.1-1.1-2-2.5-3.1-2.8c-6.1-1.5-12-0.4-17.6,2.4c-1.5,0.7-3,1.3-4.5,2
			c-0.3-0.5-0.7-1.1-1-1.6c1.5-1.1,2.9-2.6,4.5-3.2c9.2-3.4,18.6-3.9,27.9-0.8c6.8,2.3,11.1,7.2,11.4,14.7c0.4,9,0.2,18,0.3,27
			c0,2.9-1.3,4-3.8,3.6c-4.9-0.8-10.2,2-14.9-1.9c-0.5-0.4-2.1,0.6-3.1,1c-5.4,2.3-10.9,2.2-16.3,0.6c-7.6-2.2-12.2-9.1-11.6-17
			c0.6-8.1,6.4-14.3,15-15.2C893.9,398.3,899.5,398.7,905.6,398.7z M892.4,429.1c9.6,0.7,13.2-2.5,13.2-11.1c0-3.5,0.2-7-0.1-10.5
			c-0.2-1.7-1.1-4.3-2.3-4.7c-3.1-1.1-6.6-1.3-9.9-1.6c-0.2,0-0.8,1.4-0.8,2.1C892.4,411.9,892.4,420.3,892.4,429.1z"/>
		<path d="M510.6,421.2c-0.8,7-12.1,12.1-21.9,10.8c-15-2-24.2-13-22.3-26.8c1.9-14,14.9-23.2,29.7-20.8
			c12.4,2.1,20.4,12.7,18.2,24.9c-7.6,0-15.2,0.2-22.8-0.1c-4.1-0.2-5.6,1.3-5.2,5.4c0.3,3.1,0.3,6.3,0,9.5
			c-0.5,4.4,1.8,5.4,5.4,5.5c5.8,0,10.9-1.8,15.3-5.6C508.1,423.2,509.1,422.4,510.6,421.2z M498.2,406.5c0.2-1.1,0.4-1.5,0.4-2
			c0-3.6,0.1-7.3,0.1-10.9c0-6.2-5-9.3-10.6-6.6c-0.8,0.4-1.7,1.7-1.7,2.6c-0.2,5.6-0.1,11.1-0.1,16.9
			C490.7,406.5,494.3,406.5,498.2,406.5z"/>
		<path d="M1121.3,421.1c-1.6,8.1-13.9,12.6-25.3,10.3c-13.5-2.7-21.6-14.9-18.9-28c3-13.8,16.1-21.9,30.6-18.7
			c11.9,2.6,18.8,12.6,16.3,24.6c-7.2,0-14.6,0.2-21.8-0.1c-4.2-0.2-6.1,1-5.7,5.5c0.3,3.3,0.2,6.7,0,10c-0.2,3.6,1.5,4.7,4.6,4.8
			c6.2,0.2,11.6-1.5,16.3-5.6C1118.5,423.2,1119.6,422.4,1121.3,421.1z M1096.7,406.8c3.6,0,6.7,0.3,9.7-0.1c1.1-0.1,2.7-1.9,2.8-3
			c0.3-4.5,0.3-8.9,0.1-13.4c-0.2-4.3-3.7-3.5-6.3-3.6c-2.4-0.1-5.9-1.2-6.2,2.8C1096.4,395,1096.7,400.6,1096.7,406.8z"/>
		<path d="M524.6,425c3.4,1.4,6.8,3.3,10.3,4.1c2.8,0.7,5.9,0.6,8.7,0c3.9-0.9,4.6-3.6,1.7-6.5c-3.6-3.5-7.8-6.6-11.5-10.1
			c-2.8-2.6-5.5-5.3-7.6-8.4c-3.7-5.5-2.7-11.5,2.2-15.6c6.3-5.3,19.9-6.1,26.6-1.3c1,0.7,1.6,1.8,2.5,2.7c-0.3,0.4-0.5,0.7-0.8,1.1
			c-1.2-0.5-2.3-1.3-3.5-1.6c-3.9-1-7.8-2.5-11.7-2.7c-3.4-0.2-4.5,2.7-2.3,5.4c1.8,2.1,4.1,3.8,6.2,5.6c3.9,3.5,8.3,6.7,11.6,10.7
			c5.3,6.3,3.7,14.8-2.9,19.6c-7,5.1-20.5,5.6-27.6,1c-1.2-0.7-1.9-2.1-2.9-3.2C524,425.6,524.3,425.3,524.6,425z"/>
		<path d="M1065.2,390.5c-3.4-1.3-6.8-3.1-10.4-3.7c-2.4-0.4-5,1-7.6,1.6c1.2,2.2,2,4.8,3.7,6.4c4,3.9,8.8,7,12.7,11
			c8.6,8.5,6.1,20-4.9,24.4c-7.4,2.9-14.8,2.7-22-0.6c-1.7-0.8-3-2.3-4.4-3.5c0.4-0.5,0.7-1,1.1-1.5c1.3,0.7,2.6,1.7,3.9,2
			c4.8,1.1,9.7,2.2,14.7,2.6c1.3,0.1,3.3-1.6,3.9-3c0.4-0.9-0.9-3.1-2-4.1c-4-3.7-8.4-7-12.3-10.7c-2.4-2.2-4.7-4.7-6.5-7.4
			c-3.5-5.4-2.7-11.2,2-15.3c6.2-5.6,20.2-6.4,26.9-1.5c0.8,0.6,1.4,1.6,2,2.5C1065.7,390,1065.5,390.3,1065.2,390.5z"/>
		<path d="M853.3,431c-6,0-11.3,0-17.1,0c0-15.2,0-30.4,0-45.8c5.7,0,11.1,0,17,0c0,3.9,0,7.5,0,11.1c0.4,0.1,0.7,0.3,1.1,0.4
			c1-1.6,1.7-3.3,2.9-4.6c2.7-2.8,5.5-5.5,8.6-7.7c0.8-0.6,3.1,0.3,4.3,1.2c0.6,0.5,0.8,2.9,0.2,3.5c-1,1-3,2-4.1,1.6
			c-4.2-1.3-6.7,0.9-7.8,4.1c-2.1,6-3.9,12.3-4.9,18.6C852.6,419,853.3,424.8,853.3,431z"/>
		<path d="M591.4,384.9c5,0,10-0.1,14.9,0.1c1,0,2.6,1.7,2.6,2.6c0.2,14.3,0.1,28.5,0.1,43.2c-6,0-11.6,0-17.7,0
			C591.4,415.9,591.4,400.8,591.4,384.9z"/>
		<path d="M1003.2,431c0-14.7-0.1-28.9,0.1-43c0-1,1.7-2.1,2.7-3.1c0.3-0.3,1,0,1.5-0.1c13.8-0.4,13.8-0.4,13.8,13.5
			c0,10.8,0,21.5,0,32.6C1015,431,1009.4,431,1003.2,431z"/>
		<path d="M454.8,431.1c-6.3,0-11.9,0-17.8,0c0-15.3,0-30.3,0-46.1c5.2,0,10.4-0.1,15.5,0.1c0.8,0,2.2,2,2.2,3
			C454.8,402.2,454.8,416.3,454.8,431.1z"/>
		<path d="M1356.4,249.7c1-2.1,1.9-4.2,3-6.2c2.8-4.4,5.8-8.7,8.6-13.1c1.7-2.6,1.3-4.7-1.1-6.9c-3.6-3.6-3-8.3-1.4-12.5
			s5-6.3,9.5-6.4c4.3-0.1,6.7,2.1,7.4,6.3c1.1,6.1-0.4,11.6-3.9,16.4c-5.1,7-10.2,14.1-15.5,20.9c-1.2,1.5-3.5,2-5.3,3
			C1357.4,250.7,1356.9,250.2,1356.4,249.7z"/>
		<path d="M599.5,376.8c-2-0.7-4.3-1-6.2-2.2c-3.5-2.3-3.5-7.2,0-9.6c4-2.6,8.5-3,12.5-0.4c1.7,1.1,3.4,3.6,3.3,5.4
			s-2.1,3.9-3.7,5.1C604,376.2,601.8,376.3,599.5,376.8z"/>
		<path d="M444.9,376.8c-2-0.7-4.3-1.2-6.1-2.4c-3-2-3.1-6.1-0.7-8.6c3.4-3.5,11.2-3.7,14.9-0.3c3.3,3.1,2.8,7.6-1.6,9.6
			C449.5,376,447.4,376.2,444.9,376.8z"/>
		<path d="M1012.1,377.4c-3-1.5-6.1-2-7.3-3.8c-1.2-1.8-1.4-5.5-0.3-7.3c2.4-3.9,10.2-4.3,14.2-1.3c2.7,2,4.2,5,1.9,7.6
			C1018.4,374.8,1015,375.8,1012.1,377.4z"/>
		<path class="st1" d="M1022.7,291.2c-3.3,13.6-8.9,25.4-15.9,36.6c-9.8,15.6-22.6,27.7-38.9,36c-10.6,5.3-21.7,7.4-33.3,5.5
			c-7.4-1.2-12.9-5.4-16.2-13.1c4.2-1.1,8.3-2,12.2-3.3c17.7-5.8,31.8-16.7,43-31.4c6.2-8.1,11.3-17,16.9-25.5
			c0.9-1.3,2-3.1,3.2-3.4C1003.1,290.9,1012.5,289.9,1022.7,291.2z"/>
		<path class="st1" d="M893.6,211.5c-3.8-11.1,3.7-41.5,21.9-54.9c20.9-15.2,53.8-19.9,65.4-8.7
			C942.7,155.8,913.9,177.1,893.6,211.5z"/>
		<path class="st1" d="M1026.7,210.1c3,25.7,3.8,51.4-2.7,77.6c-9.5,0-19.1,0-28.9,0c9.8-25.9,19.7-51.9,29.5-77.9
			C1025.3,209.9,1026,210,1026.7,210.1z"/>
		<path class="st1" d="M915.4,351.3c1.5-5.9,2-11.3,4.1-15.8c10.6-22.2,29.6-33,52.2-38.5c0.4-0.1,0.9,0.2,1.4,0.3
			C964.6,318,941.2,347.3,915.4,351.3z"/>
		<path class="st1" d="M1038.3,288.8c-3.5-0.2-6.4-0.4-9.9-0.6c0.5-3.5,0.8-6.6,1.5-9.6c4.9-19.9,6.1-40,4-60.3
			c-0.6-5.9-2.5-11.6-3.7-17.4c-0.2-0.9-0.5-2.1-0.1-2.8c2.3-4.5,4.7-8.9,7.8-13.3C1051.5,219.4,1045.7,253.8,1038.3,288.8z"/>
		<path class="st1" d="M1026.3,188.8c-5.7-14.1-13.6-25.1-25.6-34.3c8.3,0.4,14.5,3.5,19.8,7.6c4.7,3.7,8.6,8.5,12.4,13.2
			c0.8,0.9,0.6,3.5-0.1,4.8C1031.1,182.9,1028.9,185.3,1026.3,188.8z"/>
		<path class="st1" d="M1054.5,296.1c-7.4,13-14.1,25.8-23.8,36.5c-0.5-0.2-0.9-0.5-1.4-0.7c1.9-4.2,3.9-8.3,5.6-12.5
			c2.7-6.6,5.2-13.2,7.4-20c1.6-4.8,4-6.5,8.7-4.4C1051.9,295.4,1052.9,295.6,1054.5,296.1z"/>
		<path class="st1" d="M137.8,226.5c-8.5,9.6-17.5,17.9-23.9,27.9c-5.1,8-12.3,9.4-19.8,11.7c-12.8,3.8-24.5,9.9-35,18.6
			c-12.3-12.6-17.7-27.6-17.4-45c0.3-24.8,12-43.6,29.7-59.2c13.5-12,29.3-18.3,47.3-19.2c1.6-0.1,3.1,0,4.7,0
			c-3.4,5.3-7,10.1-9.7,15.3c-5.2,9.7-2.6,18.9,2.4,27.8c5,9,12.6,15.5,20.6,21.5C137.1,226.2,137.9,226.5,137.8,226.5z"/>
		<path class="st1" d="M180.4,271.6c6.1,14.7,4,28.2-4.6,40.4c-10.6,14.9-25.6,23.6-42.6,29.2c-14.5,4.8-29,7.9-44.4,6.4
			c-6-0.6-6.6-0.9-5.8-7c1.6-10.8,3.4-21.6,5-32.4c0.5-3.4,2.1-4,5.3-4.1c11.1-0.4,22.3-0.3,33.2-2.1c19.7-3.3,36.5-13,50.6-27.3
			C178.1,273.7,179.1,272.8,180.4,271.6z"/>
		<path class="st1" d="M89.7,301.4c3.8-8.6,7.1-16.1,10.4-23.6c0.8-1.8,2-3.5,2.8-5.3c2.2-5.6,6.3-7.9,12.1-7.9c7.2,0,14.3,0,21.4,0
			c0.2-0.6,0.5-1.1,0.7-1.7c-1.5-0.9-2.9-2.4-4.3-2.5c-7.2-0.3-14.4-0.1-22.8-0.1c4.7-5.9,8.7-11.4,13.2-16.4
			c4.1-4.6,8.8-8.8,13.5-12.8c1.1-0.9,3.9-1.3,5-0.5c12.5,9.2,24.9,18.6,34.3,31.3c2.4,3.1,2.4,5.2-0.4,8.1
			c-14.9,15.6-32.4,25.9-53.5,30C111.7,302,101.6,302.7,89.7,301.4z"/>
		<path class="st1" d="M75.8,344.7c-10.7-3.1-19.3-9.5-23.3-21c-4.1-11.9-0.5-22.3,6.2-31.6c8.7,4.1,16.9,7.9,25.2,11.8
			C81.2,316.8,78.6,330.5,75.8,344.7z"/>
		<path class="st1" d="M187.7,250.7c-11.8-10.1-23.4-20.1-34.9-30c11-9.1,29.7-13,37.2,0.9c4.4,8.3,2.5,16.8-0.3,25.2
			C189.3,248.1,188.4,249.3,187.7,250.7z"/>
		<path class="st1" d="M101.8,267.2C96.7,278,92,288.1,87,298c-0.5,1.1-3,1.9-4.3,1.6c-7.9-1.5-14.7-5.2-21.1-10.7
			C72.2,276.2,86.1,270.6,101.8,267.2z"/>
		<path class="st1" d="M209,170.3c2.5,8.5,1.2,15.1-4.4,21.2c-1.4,1.5-3.3,2.9-6.4,2.5c-1.7-2.3-1.3-4.8-0.5-6.5
			c2.9-6.2,6.3-12,9.5-18C208.8,169.5,208.6,169.7,209,170.3z"/>
		<path class="st1" d="M758.1,250c8.1-24.7,14.6-49.2,30-69.7c17.1-22.8,39.4-35,67.8-34.4c9.9,0.2,19.5,3,25.3,12.5
			c5.3,8.6,4.5,18.4-1.7,26.4c-8,10.2-18.4,17.3-29.3,23.7c-23.9,14-48.9,25.7-74.7,35.4C769.6,245.9,763.8,247.9,758.1,250z"/>
		<path class="st1" d="M1285.5,346c-8.9,18.4-17,37.2-27,55c-11,19.5-27,34.1-49.1,39.9c-14.6,3.8-29.4,4.4-43.7-2.4
			c-12.1-5.7-16-20.6-8.5-31.9c7.4-11,18.1-18,29.4-23.9c26-13.7,53.3-24.2,80.9-33.8c5.3-1.8,10.9-3.1,16.3-4.6
			C1284.5,344.9,1285,345.4,1285.5,346z"/>
		<path class="st1" d="M955.1,408.1c0-5.8,0.1-11.6,0-17.4c-0.1-3.3,1.4-4.5,4.5-4.1c1.6,0.2,3.2,0.6,4.8,0.9
			c4.6,0.9,6.8,3.2,6.5,8.5c-0.5,8.6,0.1,17.3-0.3,25.9c-0.1,2-1.8,4.9-3.4,5.5c-3.3,1.2-7.2,1.3-10.8,1.5c-0.3,0-1.1-2.5-1.2-3.9
			C955,419.4,955.1,413.8,955.1,408.1z"/>
		<path class="st1" d="M404.1,429.5c-1.9,0-2.8,0.1-3.7,0c-11.1-1.1-11.9-2-11.8-13.3c0-7.3-0.2-14.6,0.2-21.9
			c0.1-1.9,1.6-4.8,3.1-5.3c3.5-1.2,7.6-1.4,11.3-1.8c0.3,0,1,1.3,1,2.1C404.1,402.4,404.1,415.6,404.1,429.5z"/>
		<path class="st1" d="M339.2,408.6c0,5.7-0.1,11.3,0,17c0.1,3.4-1.3,4.5-4.4,3.8c-1.3-0.3-2.6-0.3-3.9-0.6
			c-6.5-1.2-7.5-2.4-7.5-9.2c0-8.3-0.2-16.7,0.2-25c0.1-2,1.6-5.2,3.1-5.8c3.5-1.3,7.5-1.4,11.3-1.7c0.3,0,1.1,2.5,1.1,3.9
			C339.2,396.9,339.2,402.8,339.2,408.6z"/>
		<path class="st1" d="M790.5,400.9c2.3,0.2,4.1,0.3,6.1,0.5c4.5,0.6,7.2,2.5,6.5,7.8c-0.4,2.8-0.1,5.7-0.1,8.5
			c0,9.2-2.6,11.7-12.5,11.6C790.5,419.9,790.5,410.6,790.5,400.9z"/>
		<path class="st1" d="M892.4,429.1c0-8.8,0-17.2,0-25.7c0-0.7,0.6-2.1,0.8-2.1c3.3,0.4,6.8,0.5,9.9,1.6c1.2,0.4,2.1,3,2.3,4.7
			c0.4,3.5,0.1,7,0.1,10.5C905.6,426.6,902.1,429.8,892.4,429.1z"/>
		<path class="st1" d="M498.2,406.5c-3.9,0-7.6,0-12,0c0-5.8-0.1-11.4,0.1-16.9c0-0.9,0.9-2.2,1.7-2.6c5.7-2.8,10.7,0.4,10.6,6.6
			c0,3.6,0,7.3-0.1,10.9C498.6,405,498.5,405.5,498.2,406.5z"/>
		<path class="st1" d="M1096.7,406.8c0-6.2-0.3-11.8,0.1-17.4c0.3-4,3.8-2.9,6.2-2.8c2.6,0.1,6.1-0.7,6.3,3.6
			c0.2,4.5,0.2,9-0.1,13.4c-0.1,1.1-1.7,2.8-2.8,3C1103.5,407,1100.3,406.8,1096.7,406.8z"/>
		<path class="st2" d="M-163.5,550.7"/>
	</g>
</g>
</svg>
